<?xml version="1.0" encoding="utf-8" standalone="no"?>
<!DOCTYPE svg PUBLIC "-//W3C//DTD SVG 1.1//EN"
  "http://www.w3.org/Graphics/SVG/1.1/DTD/svg11.dtd">
<svg xmlns:xlink="http://www.w3.org/1999/xlink" width="864pt" height="374.4pt" viewBox="0 0 864 374.4" xmlns="http://www.w3.org/2000/svg" version="1.1">
 <metadata>
  <rdf:RDF xmlns:dc="http://purl.org/dc/elements/1.1/" xmlns:cc="http://creativecommons.org/ns#" xmlns:rdf="http://www.w3.org/1999/02/22-rdf-syntax-ns#">
   <cc:Work>
    <dc:type rdf:resource="http://purl.org/dc/dcmitype/StillImage"/>
    <dc:format>image/svg+xml</dc:format>
    <dc:creator>
     <cc:Agent>
      <dc:title>Matplotlib v3.11.2, https://matplotlib.org/</dc:title>
     </cc:Agent>
    </dc:creator>
   </cc:Work>
  </rdf:RDF>
 </metadata>
 <defs>
  <style type="text/css">*{stroke-linejoin: round; stroke-linecap: butt}</style>
 </defs>
 <g id="figure_1">
  <g id="patch_1">
   <path d="M 0 374.4 
L 864 374.4 
L 864 0 
L 0 0 
z
" style="fill: #fcfcfb"/>
  </g>
  <g id="axes_1">
   <g id="patch_2">
    <path d="M 120.96 299.52 
L 417.290579 299.52 
L 417.290579 112.32 
L 120.96 112.32 
z
" style="fill: #fcfcfb"/>
   </g>
   <g id="matplotlib.axis_1">
    <g id="xtick_1">
     <g id="line2d_1">
      <path d="M 120.96 299.52 
L 120.96 112.32 
" clip-path="url(#p4c68d5a59f)" style="fill: none; stroke: #e6e5e0; stroke-width: 0.8; stroke-linecap: square"/>
     </g>
     <g id="line2d_2"/>
     <g id="text_1">
      <!-- 0 -->
      <g style="fill: #52514e" transform="translate(117.174375 314.645) scale(0.12 -0.12)">
       <defs>
        <path id="Inter-Regular-53f" d="M 2019 -63 
C 3059 -63 3656 809 3656 2325 
C 3656 3834 3050 4719 2019 4719 
C 988 4719 381 3834 381 2325 
C 381 806 981 -63 2019 -63 
z
M 2019 456 
C 1338 456 953 1144 953 2325 
C 953 3509 1338 4203 2019 4203 
C 2700 4203 3084 3513 3084 2325 
C 3084 1144 2700 456 2019 456 
z
" transform="scale(0.015625)"/>
       </defs>
       <use xlink:href="#Inter-Regular-53f"/>
      </g>
     </g>
    </g>
    <g id="xtick_2">
     <g id="line2d_3">
      <path d="M 159.950866 299.52 
L 159.950866 112.32 
" clip-path="url(#p4c68d5a59f)" style="fill: none; stroke: #e6e5e0; stroke-width: 0.8; stroke-linecap: square"/>
     </g>
     <g id="line2d_4"/>
     <g id="text_2">
      <!-- 250 -->
      <g style="fill: #52514e" transform="translate(148.858366 314.645) scale(0.12 -0.12)">
       <defs>
        <path id="Inter-Regular-541" d="M 481 0 
L 3447 0 
L 3447 522 
L 1300 522 
L 1300 559 
L 2319 1644 
C 3141 2519 3369 2916 3369 3419 
C 3369 4147 2778 4719 1947 4719 
C 1119 4719 494 4159 494 3334 
L 1063 3334 
C 1063 3859 1400 4203 1931 4203 
C 2428 4203 2806 3900 2806 3413 
C 2806 2984 2544 2666 2028 2106 
L 481 428 
L 481 0 
z
" transform="scale(0.015625)"/>
        <path id="Inter-Regular-545" d="M 1956 -63 
C 2853 -63 3509 594 3509 1488 
C 3509 2388 2881 3047 2028 3047 
C 1706 3047 1397 2934 1206 2775 
L 1181 2775 
L 1341 4134 
L 3291 4134 
L 3291 4656 
L 841 4656 
L 566 2350 
L 1122 2281 
C 1306 2422 1631 2525 1919 2525 
C 2503 2525 2928 2078 2928 1478 
C 2928 888 2519 459 1956 459 
C 1488 459 1106 759 1069 1175 
L 494 1175 
C 525 463 1138 -63 1956 -63 
z
" transform="scale(0.015625)"/>
       </defs>
       <use xlink:href="#Inter-Regular-541"/>
       <use xlink:href="#Inter-Regular-545" transform="translate(60.984375 0)"/>
       <use xlink:href="#Inter-Regular-53f" transform="translate(121.78125 0)"/>
      </g>
     </g>
    </g>
    <g id="xtick_3">
     <g id="line2d_5">
      <path d="M 198.941731 299.52 
L 198.941731 112.32 
" clip-path="url(#p4c68d5a59f)" style="fill: none; stroke: #e6e5e0; stroke-width: 0.8; stroke-linecap: square"/>
     </g>
     <g id="line2d_6"/>
     <g id="text_3">
      <!-- 500 -->
      <g style="fill: #52514e" transform="translate(187.722669 314.645) scale(0.12 -0.12)">
       <use xlink:href="#Inter-Regular-545"/>
       <use xlink:href="#Inter-Regular-53f" transform="translate(60.796875 0)"/>
       <use xlink:href="#Inter-Regular-53f" transform="translate(123.890625 0)"/>
      </g>
     </g>
    </g>
    <g id="xtick_4">
     <g id="line2d_7">
      <path d="M 237.932597 299.52 
L 237.932597 112.32 
" clip-path="url(#p4c68d5a59f)" style="fill: none; stroke: #e6e5e0; stroke-width: 0.8; stroke-linecap: square"/>
     </g>
     <g id="line2d_8"/>
     <g id="text_4">
      <!-- 750 -->
      <g style="fill: #52514e" transform="translate(227.161659 314.645) scale(0.12 -0.12)">
       <defs>
        <path id="Inter-Regular-548" d="M 625 0 
L 1250 0 
L 3316 4103 
L 3316 4656 
L 306 4656 
L 306 4134 
L 2694 4134 
L 2694 4097 
L 625 0 
z
" transform="scale(0.015625)"/>
       </defs>
       <use xlink:href="#Inter-Regular-548"/>
       <use xlink:href="#Inter-Regular-545" transform="translate(55.625 0)"/>
       <use xlink:href="#Inter-Regular-53f" transform="translate(116.421875 0)"/>
      </g>
     </g>
    </g>
    <g id="xtick_5">
     <g id="line2d_9">
      <path d="M 276.923462 299.52 
L 276.923462 112.32 
" clip-path="url(#p4c68d5a59f)" style="fill: none; stroke: #e6e5e0; stroke-width: 0.8; stroke-linecap: square"/>
     </g>
     <g id="line2d_10"/>
     <g id="text_5">
      <!-- 1000 -->
      <g style="fill: #52514e" transform="translate(263.126275 314.645) scale(0.12 -0.12)">
       <defs>
        <path id="Inter-Regular-540" d="M 2041 4656 
L 1313 4656 
L 300 3909 
L 300 3272 
L 1425 4106 
L 1456 4106 
L 1456 0 
L 2041 0 
L 2041 4656 
z
" transform="scale(0.015625)"/>
       </defs>
       <use xlink:href="#Inter-Regular-540"/>
       <use xlink:href="#Inter-Regular-53f" transform="translate(40.671875 0)"/>
       <use xlink:href="#Inter-Regular-53f" transform="translate(103.765625 0)"/>
       <use xlink:href="#Inter-Regular-53f" transform="translate(166.859375 0)"/>
      </g>
     </g>
    </g>
    <g id="xtick_6">
     <g id="line2d_11">
      <path d="M 315.914328 299.52 
L 315.914328 112.32 
" clip-path="url(#p4c68d5a59f)" style="fill: none; stroke: #e6e5e0; stroke-width: 0.8; stroke-linecap: square"/>
     </g>
     <g id="line2d_12"/>
     <g id="text_6">
      <!-- 1250 -->
      <g style="fill: #52514e" transform="translate(302.381515 314.645) scale(0.12 -0.12)">
       <use xlink:href="#Inter-Regular-540"/>
       <use xlink:href="#Inter-Regular-541" transform="translate(40.671875 0)"/>
       <use xlink:href="#Inter-Regular-545" transform="translate(101.65625 0)"/>
       <use xlink:href="#Inter-Regular-53f" transform="translate(162.453125 0)"/>
      </g>
     </g>
    </g>
    <g id="xtick_7">
     <g id="line2d_13">
      <path d="M 354.905194 299.52 
L 354.905194 112.32 
" clip-path="url(#p4c68d5a59f)" style="fill: none; stroke: #e6e5e0; stroke-width: 0.8; stroke-linecap: square"/>
     </g>
     <g id="line2d_14"/>
     <g id="text_7">
      <!-- 1500 -->
      <g style="fill: #52514e" transform="translate(341.245819 314.645) scale(0.12 -0.12)">
       <use xlink:href="#Inter-Regular-540"/>
       <use xlink:href="#Inter-Regular-545" transform="translate(40.671875 0)"/>
       <use xlink:href="#Inter-Regular-53f" transform="translate(101.46875 0)"/>
       <use xlink:href="#Inter-Regular-53f" transform="translate(164.5625 0)"/>
      </g>
     </g>
    </g>
    <g id="xtick_8">
     <g id="line2d_15">
      <path d="M 393.896059 299.52 
L 393.896059 112.32 
" clip-path="url(#p4c68d5a59f)" style="fill: none; stroke: #e6e5e0; stroke-width: 0.8; stroke-linecap: square"/>
     </g>
     <g id="line2d_16"/>
     <g id="text_8">
      <!-- 1750 -->
      <g style="fill: #52514e" transform="translate(380.684809 314.645) scale(0.12 -0.12)">
       <use xlink:href="#Inter-Regular-540"/>
       <use xlink:href="#Inter-Regular-548" transform="translate(40.671875 0)"/>
       <use xlink:href="#Inter-Regular-545" transform="translate(96.296875 0)"/>
       <use xlink:href="#Inter-Regular-53f" transform="translate(157.09375 0)"/>
      </g>
     </g>
    </g>
   </g>
   <g id="matplotlib.axis_2">
    <g id="ytick_1">
     <g id="line2d_17"/>
     <g id="text_9">
      <!-- before E2 -->
      <g style="fill: #0b0b0b" transform="translate(62.60875 138.861978) scale(0.12 -0.12)">
       <defs>
        <path id="Inter-Regular-243" d="M 2116 -75 
C 2988 -75 3594 625 3594 1738 
C 3594 2844 2984 3538 2113 3538 
C 1431 3538 1216 3119 1100 2934 
L 1056 2934 
L 1056 4656 
L 494 4656 
L 494 0 
L 1038 0 
L 1038 541 
L 1100 541 
C 1216 347 1450 -75 2116 -75 
z
M 2031 428 
C 1397 428 1050 966 1050 1744 
C 1050 2516 1388 3034 2031 3034 
C 2694 3034 3022 2469 3022 1744 
C 3022 1009 2684 428 2031 428 
z
" transform="scale(0.015625)"/>
        <path id="Inter-Regular-267" d="M 1963 -75 
C 2678 -75 3200 284 3363 813 
L 2819 963 
C 2688 606 2378 425 1966 425 
C 1347 425 922 825 894 1556 
L 3419 1556 
L 3419 1791 
C 3419 3081 2638 3538 1897 3538 
C 944 3538 325 2791 325 1719 
C 325 644 950 -75 1963 -75 
z
M 897 2031 
C 931 2566 1297 3038 1897 3038 
C 2472 3038 2794 2625 2847 2031 
L 897 2031 
z
" transform="scale(0.015625)"/>
        <path id="Inter-Regular-288" d="M 2119 3494 
L 1313 3494 
L 1313 3834 
C 1313 4172 1463 4353 1809 4353 
C 1966 4353 2053 4319 2113 4300 
L 2269 4781 
C 2184 4819 2009 4875 1744 4875 
C 1234 4875 750 4566 750 3959 
L 750 3494 
L 63 3494 
L 63 3013 
L 750 3013 
L 750 0 
L 1313 0 
L 1313 3013 
L 2119 3013 
L 2119 3494 
z
" transform="scale(0.015625)"/>
        <path id="Inter-Regular-318" d="M 1916 -75 
C 2869 -75 3513 647 3513 1725 
C 3513 2819 2869 3538 1916 3538 
C 966 3538 325 2819 325 1725 
C 325 647 966 -75 1916 -75 
z
M 1916 428 
C 1219 428 897 1038 897 1725 
C 897 2422 1219 3034 1916 3034 
C 2622 3034 2944 2419 2944 1725 
C 2944 1038 2622 428 1916 428 
z
" transform="scale(0.015625)"/>
        <path id="Inter-Regular-356" d="M 494 0 
L 1056 0 
L 1056 2188 
C 1056 2659 1425 3000 1928 3000 
C 2078 3000 2231 2975 2266 2969 
L 2266 3534 
C 2200 3538 2063 3544 1981 3544 
C 1566 3544 1203 3309 1075 2956 
L 1038 2956 
L 1038 3494 
L 494 3494 
L 494 0 
z
" transform="scale(0.015625)"/>
        <path id="Inter-Regular-6eb" transform="scale(0.015625)"/>
        <path id="Inter-Regular-5f" d="M 563 0 
L 3428 0 
L 3428 525 
L 1156 525 
L 1156 2088 
L 3247 2088 
L 3247 2613 
L 1156 2613 
L 1156 4131 
L 3400 4131 
L 3400 4656 
L 563 4656 
L 563 0 
z
" transform="scale(0.015625)"/>
       </defs>
       <use xlink:href="#Inter-Regular-243"/>
       <use xlink:href="#Inter-Regular-267" transform="translate(61.234375 0)"/>
       <use xlink:href="#Inter-Regular-288" transform="translate(119.53125 0)"/>
       <use xlink:href="#Inter-Regular-318" transform="translate(153.625 0)"/>
       <use xlink:href="#Inter-Regular-356" transform="translate(213.59375 0)"/>
       <use xlink:href="#Inter-Regular-267" transform="translate(249.578125 0)"/>
       <use xlink:href="#Inter-Regular-6eb" transform="translate(307.875 0)"/>
       <use xlink:href="#Inter-Regular-5f" transform="translate(336 0)"/>
       <use xlink:href="#Inter-Regular-541" transform="translate(396.109375 0)"/>
      </g>
     </g>
    </g>
    <g id="ytick_2">
     <g id="line2d_18"/>
     <g id="text_10">
      <!-- + E2 kernel -->
      <g style="fill: #0b0b0b" transform="translate(53.231875 175.297239) scale(0.12 -0.12)">
       <defs>
        <path id="Inter-Regular-601" d="M 1853 797 
L 2381 797 
L 2381 2059 
L 3625 2059 
L 3625 2556 
L 2381 2556 
L 2381 3816 
L 1853 3816 
L 1853 2556 
L 609 2556 
L 609 2059 
L 1853 2059 
L 1853 797 
z
" transform="scale(0.015625)"/>
        <path id="Inter-Regular-2d9" d="M 494 0 
L 1056 0 
L 1056 1288 
L 1425 1634 
L 2703 0 
L 3425 0 
L 1853 1994 
L 3316 3494 
L 2619 3494 
L 1125 1953 
L 1056 1953 
L 1056 4656 
L 494 4656 
L 494 0 
z
" transform="scale(0.015625)"/>
        <path id="Inter-Regular-307" d="M 1056 2094 
C 1056 2691 1434 3031 1938 3031 
C 2425 3031 2725 2709 2725 2172 
L 2725 0 
L 3288 0 
L 3288 2219 
C 3288 3103 2813 3538 2106 3538 
C 1638 3538 1263 3341 1038 2847 
L 1034 3494 
L 494 3494 
L 494 0 
L 1056 0 
L 1056 2094 
z
" transform="scale(0.015625)"/>
        <path id="Inter-Regular-2e2" d="M 1056 4656 
L 494 4656 
L 494 0 
L 1056 0 
L 1056 4656 
z
" transform="scale(0.015625)"/>
       </defs>
       <use xlink:href="#Inter-Regular-601"/>
       <use xlink:href="#Inter-Regular-6eb" transform="translate(66.15625 0)"/>
       <use xlink:href="#Inter-Regular-5f" transform="translate(94.28125 0)"/>
       <use xlink:href="#Inter-Regular-541" transform="translate(154.390625 0)"/>
       <use xlink:href="#Inter-Regular-6eb" transform="translate(215.375 0)"/>
       <use xlink:href="#Inter-Regular-2d9" transform="translate(243.5 0)"/>
       <use xlink:href="#Inter-Regular-267" transform="translate(296.140625 0)"/>
       <use xlink:href="#Inter-Regular-356" transform="translate(354.4375 0)"/>
       <use xlink:href="#Inter-Regular-307" transform="translate(393.640625 0)"/>
       <use xlink:href="#Inter-Regular-267" transform="translate(452.71875 0)"/>
       <use xlink:href="#Inter-Regular-2e2" transform="translate(511.015625 0)"/>
      </g>
     </g>
    </g>
    <g id="ytick_3">
     <g id="line2d_19"/>
     <g id="text_11">
      <!-- A -->
      <g style="fill: #0b0b0b" transform="translate(109.18 211.7325) scale(0.12 -0.12)">
       <defs>
        <path id="Inter-Regular-2" d="M 163 0 
L 794 0 
L 1244 1300 
L 3163 1300 
L 3628 0 
L 4253 0 
L 2541 4656 
L 1853 4656 
L 163 0 
z
M 1425 1819 
L 1753 2763 
C 1853 3050 1997 3494 2194 4181 
C 2391 3506 2528 3075 2641 2763 
L 2978 1819 
L 1425 1819 
z
" transform="scale(0.015625)"/>
       </defs>
       <use xlink:href="#Inter-Regular-2"/>
      </g>
     </g>
    </g>
    <g id="ytick_4">
     <g id="line2d_20"/>
     <g id="text_12">
      <!-- C -->
      <g style="fill: #0b0b0b" transform="translate(108.694375 248.167761) scale(0.12 -0.12)">
       <defs>
        <path id="Inter-Regular-49" d="M 2447 -63 
C 3400 -63 4163 519 4325 1466 
L 3731 1466 
C 3600 831 3056 488 2447 488 
C 1613 488 959 1134 959 2325 
C 959 3519 1609 4169 2447 4169 
C 3053 4169 3600 3828 3731 3191 
L 4325 3191 
C 4159 4150 3391 4719 2447 4719 
C 1253 4719 381 3803 381 2325 
C 381 850 1253 -63 2447 -63 
z
" transform="scale(0.015625)"/>
       </defs>
       <use xlink:href="#Inter-Regular-49"/>
      </g>
     </g>
    </g>
    <g id="ytick_5">
     <g id="line2d_21"/>
     <g id="text_13">
      <!-- C, verified -->
      <g style="fill: #0b0b0b" transform="translate(59.05375 284.603022) scale(0.12 -0.12)">
       <defs>
        <path id="Inter-Regular-5df" d="M 400 -1122 
L 831 -1122 
L 1319 650 
L 675 650 
L 400 -1122 
z
" transform="scale(0.015625)"/>
        <path id="Inter-Regular-3d6" d="M 1503 0 
L 2094 0 
L 3428 3494 
L 2813 3494 
L 2069 1422 
C 1959 1119 1878 813 1800 522 
C 1719 813 1638 1119 1528 1422 
L 784 3494 
L 169 3494 
L 1503 0 
z
" transform="scale(0.015625)"/>
        <path id="Inter-Regular-2b2" d="M 494 0 
L 1056 0 
L 1056 3494 
L 494 3494 
L 494 0 
z
M 778 4066 
C 994 4066 1172 4231 1172 4438 
C 1172 4644 994 4809 778 4809 
C 566 4809 388 4644 388 4438 
C 388 4231 566 4066 778 4066 
z
" transform="scale(0.015625)"/>
        <path id="Inter-Regular-256" d="M 1803 -75 
C 2469 -75 2703 347 2819 541 
L 2881 541 
L 2881 0 
L 3425 0 
L 3425 4656 
L 2863 4656 
L 2863 2934 
L 2819 2934 
C 2703 3119 2488 3538 1806 3538 
C 934 3538 325 2844 325 1738 
C 325 625 931 -75 1803 -75 
z
M 1888 428 
C 1234 428 897 1009 897 1744 
C 897 2469 1225 3034 1888 3034 
C 2531 3034 2869 2516 2869 1744 
C 2869 966 2522 428 1888 428 
z
" transform="scale(0.015625)"/>
       </defs>
       <use xlink:href="#Inter-Regular-49"/>
       <use xlink:href="#Inter-Regular-5df" transform="translate(73.046875 0)"/>
       <use xlink:href="#Inter-Regular-6eb" transform="translate(101.859375 0)"/>
       <use xlink:href="#Inter-Regular-3d6" transform="translate(129.984375 0)"/>
       <use xlink:href="#Inter-Regular-267" transform="translate(184.234375 0)"/>
       <use xlink:href="#Inter-Regular-356" transform="translate(242.53125 0)"/>
       <use xlink:href="#Inter-Regular-2b2" transform="translate(281.734375 0)"/>
       <use xlink:href="#Inter-Regular-288" transform="translate(305.953125 0)"/>
       <use xlink:href="#Inter-Regular-2b2" transform="translate(342.96875 0)"/>
       <use xlink:href="#Inter-Regular-267" transform="translate(367.1875 0)"/>
       <use xlink:href="#Inter-Regular-256" transform="translate(425.484375 0)"/>
      </g>
     </g>
    </g>
   </g>
   <g id="patch_3">
    <path d="M 120.96 120.829091 
L 241.519756 120.829091 
L 241.519756 145.269864 
L 120.96 145.269864 
z
" clip-path="url(#p4c68d5a59f)" style="fill: #b9b8b1; stroke: #b9b8b1; stroke-width: 2; stroke-linejoin: miter"/>
   </g>
   <g id="patch_4">
    <path d="M 120.96 157.264352 
L 294.079443 157.264352 
L 294.079443 181.705125 
L 120.96 181.705125 
z
" clip-path="url(#p4c68d5a59f)" style="fill: #2a78d6; stroke: #fcfcfb; stroke-width: 2; stroke-linejoin: miter"/>
   </g>
   <g id="patch_5">
    <path d="M 120.96 193.699613 
L 314.354693 193.699613 
L 314.354693 218.140387 
L 120.96 218.140387 
z
" clip-path="url(#p4c68d5a59f)" style="fill: #2a78d6; stroke: #fcfcfb; stroke-width: 2; stroke-linejoin: miter"/>
   </g>
   <g id="patch_6">
    <path d="M 120.96 230.134875 
L 364.574928 230.134875 
L 364.574928 254.575648 
L 120.96 254.575648 
z
" clip-path="url(#p4c68d5a59f)" style="fill: #2a78d6; stroke: #fcfcfb; stroke-width: 2; stroke-linejoin: miter"/>
   </g>
   <g id="patch_7">
    <path d="M 120.96 266.570136 
L 364.263001 266.570136 
L 364.263001 291.010909 
L 120.96 291.010909 
z
" clip-path="url(#p4c68d5a59f)" style="fill: #2a78d6; stroke: #fcfcfb; stroke-width: 2; stroke-linejoin: miter"/>
   </g>
   <g id="patch_8">
    <path d="M 120.96 299.52 
L 417.290579 299.52 
" style="fill: none; stroke: #e6e5e0; stroke-width: 0.8; stroke-linejoin: miter; stroke-linecap: square"/>
   </g>
   <g id="text_14">
    <!-- 773 -->
    <g style="fill: #52514e" transform="translate(245.075723 137.050942) scale(0.11 -0.11)">
     <defs>
      <path id="Inter-Regular-543" d="M 1984 -63 
C 2897 -63 3572 503 3572 1266 
C 3572 1853 3225 2284 2631 2381 
L 2631 2419 
C 3106 2559 3403 2944 3403 3469 
C 3403 4131 2872 4719 2003 4719 
C 1184 4719 516 4216 491 3484 
L 1063 3484 
C 1081 3938 1516 4203 1991 4203 
C 2497 4203 2822 3900 2822 3438 
C 2822 2956 2447 2644 1903 2644 
L 1525 2644 
L 1525 2128 
L 1903 2128 
C 2594 2128 2984 1775 2984 1272 
C 2984 788 2559 459 1975 459 
C 1444 459 1025 731 991 1175 
L 391 1175 
C 422 438 1072 -63 1984 -63 
z
" transform="scale(0.015625)"/>
     </defs>
     <use xlink:href="#Inter-Regular-548"/>
     <use xlink:href="#Inter-Regular-548" transform="translate(58.546875 0)"/>
     <use xlink:href="#Inter-Regular-543" transform="translate(113.484375 0)"/>
    </g>
   </g>
   <g id="text_15">
    <!-- 1110 -->
    <g style="fill: #0b0b0b" transform="translate(297.63541 173.486204) scale(0.11 -0.11)">
     <defs>
      <path id="Inter-Bold-540" d="M 2341 4656 
L 1319 4656 
L 291 3934 
L 291 3063 
L 1356 3816 
L 1388 3816 
L 1388 0 
L 2341 0 
L 2341 4656 
z
" transform="scale(0.015625)"/>
      <path id="Inter-Bold-53f" d="M 2156 -63 
C 3338 -63 4022 816 4022 2325 
C 4022 3831 3331 4719 2156 4719 
C 984 4719 294 3831 294 2325 
C 294 816 981 -63 2156 -63 
z
M 2156 728 
C 1581 728 1266 1303 1266 2325 
C 1266 3347 1584 3931 2156 3931 
C 2731 3931 3050 3350 3050 2325 
C 3050 1303 2731 728 2156 728 
z
" transform="scale(0.015625)"/>
     </defs>
     <use xlink:href="#Inter-Bold-540"/>
     <use xlink:href="#Inter-Bold-540" transform="translate(43.109375 0)"/>
     <use xlink:href="#Inter-Bold-540" transform="translate(86.21875 0)"/>
     <use xlink:href="#Inter-Bold-53f" transform="translate(129.328125 0)"/>
    </g>
   </g>
   <g id="text_16">
    <!-- 1240 -->
    <g style="fill: #0b0b0b" transform="translate(317.91066 209.921465) scale(0.11 -0.11)">
     <defs>
      <path id="Inter-Bold-541" d="M 388 0 
L 3681 0 
L 3681 784 
L 1713 784 
L 1713 819 
L 2416 1513 
C 3369 2391 3619 2822 3619 3344 
C 3619 4150 2963 4719 1978 4719 
C 1013 4719 344 4134 344 3228 
L 1256 3228 
C 1256 3681 1538 3956 1972 3956 
C 2388 3956 2694 3700 2694 3284 
C 2694 2909 2459 2647 2038 2234 
L 388 688 
L 388 0 
z
" transform="scale(0.015625)"/>
      <path id="Inter-Bold-544" d="M 316 828 
L 2544 828 
L 2544 0 
L 3459 0 
L 3459 828 
L 4041 828 
L 4041 1597 
L 3459 1597 
L 3459 4656 
L 2263 4656 
L 316 1581 
L 316 828 
z
M 2563 1597 
L 1278 1597 
L 1278 1634 
L 2525 3606 
L 2563 3606 
L 2563 1597 
z
" transform="scale(0.015625)"/>
     </defs>
     <use xlink:href="#Inter-Bold-540"/>
     <use xlink:href="#Inter-Bold-541" transform="translate(43.109375 0)"/>
     <use xlink:href="#Inter-Bold-544" transform="translate(104.53125 0)"/>
     <use xlink:href="#Inter-Bold-53f" transform="translate(172.15625 0)"/>
    </g>
   </g>
   <g id="text_17">
    <!-- 1562 -->
    <g style="fill: #0b0b0b" transform="translate(368.130895 246.356726) scale(0.11 -0.11)">
     <defs>
      <path id="Inter-Bold-545" d="M 2075 -63 
C 3097 -63 3797 609 3797 1547 
C 3797 2441 3178 3078 2338 3078 
C 1934 3078 1584 2916 1419 2691 
L 1394 2691 
L 1516 3869 
L 3541 3869 
L 3541 4656 
L 725 4656 
L 500 2213 
L 1356 2063 
C 1500 2247 1778 2369 2056 2369 
C 2534 2369 2872 2022 2872 1525 
C 2872 1031 2541 694 2075 694 
C 1675 694 1350 941 1331 1306 
L 403 1306 
C 422 509 1119 -63 2075 -63 
z
" transform="scale(0.015625)"/>
      <path id="Inter-Bold-547" d="M 2138 -63 
C 3166 -63 3866 616 3866 1556 
C 3866 2431 3253 3059 2431 3059 
C 1922 3059 1472 2816 1263 2409 
L 1231 2409 
C 1231 3328 1556 3897 2172 3897 
C 2541 3897 2800 3694 2878 3366 
L 3816 3366 
C 3722 4131 3088 4719 2172 4719 
C 1028 4719 294 3784 294 2219 
C 294 513 1191 -63 2138 -63 
z
M 2131 694 
C 1669 694 1328 1069 1328 1528 
C 1328 1984 1681 2363 2138 2363 
C 2600 2363 2938 2000 2938 1531 
C 2938 1056 2591 694 2131 694 
z
" transform="scale(0.015625)"/>
     </defs>
     <use xlink:href="#Inter-Bold-540"/>
     <use xlink:href="#Inter-Bold-545" transform="translate(43.109375 0)"/>
     <use xlink:href="#Inter-Bold-547" transform="translate(107.03125 0)"/>
     <use xlink:href="#Inter-Bold-541" transform="translate(171.96875 0)"/>
    </g>
   </g>
   <g id="text_18">
    <!-- 1560 -->
    <g style="fill: #0b0b0b" transform="translate(367.818968 282.791987) scale(0.11 -0.11)">
     <use xlink:href="#Inter-Bold-540"/>
     <use xlink:href="#Inter-Bold-545" transform="translate(43.109375 0)"/>
     <use xlink:href="#Inter-Bold-547" transform="translate(107.03125 0)"/>
     <use xlink:href="#Inter-Bold-53f" transform="translate(171.96875 0)"/>
    </g>
   </g>
   <g id="text_19">
    <!-- Cold 100k-token prompt  (tok/s read) -->
    <g style="fill: #0b0b0b" transform="translate(120.96 100.32) scale(0.13 -0.13)">
     <defs>
      <path id="Inter-Bold-49" d="M 2456 -63 
C 3631 -63 4356 728 4463 1594 
L 3497 1594 
C 3403 1088 3003 784 2472 784 
C 1753 784 1263 1316 1263 2325 
C 1263 3313 1747 3872 2475 3872 
C 3006 3872 3406 3572 3494 3066 
L 4459 3066 
C 4322 4113 3516 4719 2456 4719 
C 1228 4719 294 3847 294 2325 
C 294 813 1216 -63 2456 -63 
z
" transform="scale(0.015625)"/>
      <path id="Inter-Bold-318" d="M 1963 -69 
C 3013 -69 3672 656 3672 1731 
C 3672 2813 3013 3538 1963 3538 
C 909 3538 253 2813 253 1731 
C 253 656 909 -69 1963 -69 
z
M 1963 669 
C 1463 669 1209 1125 1209 1734 
C 1209 2353 1463 2800 1963 2800 
C 2463 2800 2719 2350 2719 1734 
C 2719 1125 2463 669 1963 669 
z
" transform="scale(0.015625)"/>
      <path id="Inter-Bold-2e2" d="M 1338 4656 
L 400 4656 
L 400 0 
L 1338 0 
L 1338 4656 
z
" transform="scale(0.015625)"/>
      <path id="Inter-Bold-256" d="M 1678 -59 
C 2247 -59 2538 278 2666 559 
L 2713 559 
L 2713 0 
L 3634 0 
L 3634 4656 
L 2697 4656 
L 2697 2906 
L 2666 2906 
C 2541 3184 2266 3538 1672 3538 
C 897 3538 253 2934 253 1741 
C 253 578 872 -59 1678 -59 
z
M 1966 694 
C 1478 694 1216 1128 1216 1744 
C 1216 2356 1472 2788 1966 2788 
C 2447 2788 2716 2378 2716 1744 
C 2716 1113 2444 694 1966 694 
z
" transform="scale(0.015625)"/>
      <path id="Inter-Bold-6eb" transform="scale(0.015625)"/>
      <path id="Inter-Bold-2d9" d="M 400 0 
L 1338 0 
L 1338 1122 
L 1606 1425 
L 2581 0 
L 3684 0 
L 2313 1978 
L 3619 3494 
L 2534 3494 
L 1391 2150 
L 1338 2150 
L 1338 4656 
L 400 4656 
L 400 0 
z
" transform="scale(0.015625)"/>
      <path id="Inter-Bold-5b5" d="M 2556 2291 
L 438 2291 
L 438 1541 
L 2556 1541 
L 2556 2291 
z
" transform="scale(0.015625)"/>
      <path id="Inter-Bold-37b" d="M 2134 3494 
L 1481 3494 
L 1481 4325 
L 544 4325 
L 544 3494 
L 63 3494 
L 63 2778 
L 544 2778 
L 544 941 
C 544 300 925 -50 1625 -50 
C 1813 -50 2022 -28 2231 34 
L 2097 738 
C 2028 719 1872 697 1800 697 
C 1572 697 1481 800 1481 1022 
L 1481 2778 
L 2134 2778 
L 2134 3494 
z
" transform="scale(0.015625)"/>
      <path id="Inter-Bold-267" d="M 1978 -69 
C 2791 -69 3347 309 3519 891 
L 2669 1050 
C 2569 781 2322 638 1994 638 
C 1522 638 1203 931 1181 1503 
L 3572 1503 
L 3572 1766 
C 3572 2959 2844 3538 1931 3538 
C 909 3538 253 2806 253 1728 
C 253 625 909 -69 1978 -69 
z
M 1188 2091 
C 1225 2522 1494 2831 1941 2831 
C 2375 2831 2622 2547 2669 2091 
L 1188 2091 
z
" transform="scale(0.015625)"/>
      <path id="Inter-Bold-307" d="M 1338 2022 
C 1338 2484 1616 2753 2016 2753 
C 2409 2753 2647 2494 2647 2059 
L 2647 0 
L 3584 0 
L 3584 2222 
C 3584 3041 3109 3538 2384 3538 
C 1847 3538 1494 3259 1297 2772 
L 1284 3494 
L 400 3494 
L 400 0 
L 1338 0 
L 1338 2022 
z
" transform="scale(0.015625)"/>
      <path id="Inter-Bold-34d" d="M 400 -1306 
L 1338 -1306 
L 1338 559 
L 1366 559 
C 1497 278 1784 -59 2356 -59 
C 3163 -59 3778 578 3778 1741 
C 3778 2934 3138 3538 2363 3538 
C 1769 3538 1494 3184 1366 2906 
L 1322 2906 
L 1322 3494 
L 400 3494 
L 400 -1306 
z
M 2069 694 
C 1591 694 1316 1113 1316 1744 
C 1316 2378 1588 2788 2069 2788 
C 2559 2788 2819 2356 2819 1744 
C 2819 1128 2556 694 2069 694 
z
" transform="scale(0.015625)"/>
      <path id="Inter-Bold-356" d="M 400 0 
L 1338 0 
L 1338 1988 
C 1338 2422 1653 2719 2084 2719 
C 2222 2719 2406 2697 2491 2672 
L 2491 3509 
C 2406 3528 2284 3541 2188 3541 
C 1794 3541 1472 3316 1344 2884 
L 1306 2884 
L 1306 3494 
L 400 3494 
L 400 0 
z
" transform="scale(0.015625)"/>
      <path id="Inter-Bold-300" d="M 400 0 
L 1338 0 
L 1338 2113 
C 1338 2531 1591 2763 1922 2763 
C 2241 2763 2466 2544 2466 2203 
L 2466 0 
L 3372 0 
L 3372 2150 
C 3372 2516 3591 2763 3947 2763 
C 4263 2763 4500 2572 4500 2178 
L 4500 0 
L 5441 0 
L 5441 2356 
C 5441 3116 4966 3547 4325 3547 
C 3844 3547 3400 3300 3203 2763 
C 3041 3294 2750 3547 2303 3547 
C 1884 3547 1494 3325 1306 2816 
L 1269 3494 
L 400 3494 
L 400 0 
z
" transform="scale(0.015625)"/>
      <path id="Inter-Bold-59f" d="M 528 1897 
C 528 959 806 3 1334 -872 
L 2206 -872 
C 1694 297 1484 1078 1484 1897 
C 1484 2834 1753 3969 2206 4941 
L 1334 4941 
C 863 4184 528 2928 528 1897 
z
" transform="scale(0.015625)"/>
      <path id="Inter-Bold-5b1" d="M 2400 4875 
L 1588 4875 
L 88 -700 
L 900 -700 
L 2400 4875 
z
" transform="scale(0.015625)"/>
      <path id="Inter-Bold-369" d="M 1788 -69 
C 2703 -69 3350 391 3350 1078 
C 3350 1575 3025 1884 2350 2022 
L 1722 2147 
C 1391 2216 1272 2338 1272 2513 
C 1272 2722 1509 2866 1816 2866 
C 2156 2866 2353 2697 2428 2459 
L 3259 2606 
C 3128 3175 2631 3538 1803 3538 
C 919 3538 334 3125 334 2453 
C 334 1931 666 1600 1341 1463 
L 1944 1338 
C 2250 1275 2394 1163 2394 978 
C 2394 769 2172 619 1816 619 
C 1431 619 1206 778 1116 1106 
L 244 956 
C 366 306 944 -69 1788 -69 
z
" transform="scale(0.015625)"/>
      <path id="Inter-Bold-1fc" d="M 1375 -69 
C 1891 -69 2228 159 2397 484 
L 2428 484 
L 2428 0 
L 3316 0 
L 3316 2353 
C 3316 3200 2584 3538 1834 3538 
C 1053 3538 491 3191 313 2584 
L 1172 2441 
C 1247 2666 1469 2844 1831 2844 
C 2181 2844 2378 2675 2378 2378 
L 2378 2363 
C 2378 2134 2131 2109 1531 2050 
C 844 1984 213 1759 213 978 
C 213 288 709 -69 1375 -69 
z
M 1641 591 
C 1331 591 1113 731 1113 1003 
C 1113 1284 1344 1419 1691 1469 
C 1897 1497 2269 1547 2384 1628 
L 2384 1250 
C 2384 881 2078 591 1641 591 
z
" transform="scale(0.015625)"/>
      <path id="Inter-Bold-5a0" d="M 209 -872 
L 1078 -872 
C 1603 -3 1884 953 1884 1897 
C 1884 2928 1550 4188 1078 4941 
L 209 4941 
C 659 3969 928 2834 928 1897 
C 928 1088 728 313 209 -872 
z
" transform="scale(0.015625)"/>
     </defs>
     <use xlink:href="#Inter-Bold-49"/>
     <use xlink:href="#Inter-Bold-318" transform="translate(73.96875 0)"/>
     <use xlink:href="#Inter-Bold-2e2" transform="translate(135.296875 0)"/>
     <use xlink:href="#Inter-Bold-256" transform="translate(162.390625 0)"/>
     <use xlink:href="#Inter-Bold-6eb" transform="translate(225.421875 0)"/>
     <use xlink:href="#Inter-Bold-540" transform="translate(249.109375 0)"/>
     <use xlink:href="#Inter-Bold-53f" transform="translate(292.21875 0)"/>
     <use xlink:href="#Inter-Bold-53f" transform="translate(359.65625 0)"/>
     <use xlink:href="#Inter-Bold-2d9" transform="translate(427.09375 0)"/>
     <use xlink:href="#Inter-Bold-5b5" transform="translate(479.34375 0)"/>
     <use xlink:href="#Inter-Bold-37b" transform="translate(526.125 0)"/>
     <use xlink:href="#Inter-Bold-318" transform="translate(561.78125 0)"/>
     <use xlink:href="#Inter-Bold-2d9" transform="translate(623.109375 0)"/>
     <use xlink:href="#Inter-Bold-267" transform="translate(678.875 0)"/>
     <use xlink:href="#Inter-Bold-307" transform="translate(738.453125 0)"/>
     <use xlink:href="#Inter-Bold-6eb" transform="translate(800.703125 0)"/>
     <use xlink:href="#Inter-Bold-34d" transform="translate(824.390625 0)"/>
     <use xlink:href="#Inter-Bold-356" transform="translate(887.421875 0)"/>
     <use xlink:href="#Inter-Bold-318" transform="translate(925.703125 0)"/>
     <use xlink:href="#Inter-Bold-300" transform="translate(987.03125 0)"/>
     <use xlink:href="#Inter-Bold-34d" transform="translate(1078.296875 0)"/>
     <use xlink:href="#Inter-Bold-37b" transform="translate(1141.328125 0)"/>
     <use xlink:href="#Inter-Bold-6eb" transform="translate(1177.953125 0)"/>
     <use xlink:href="#Inter-Bold-6eb" transform="translate(1201.640625 0)"/>
     <use xlink:href="#Inter-Bold-59f" transform="translate(1225.328125 0)"/>
     <use xlink:href="#Inter-Bold-37b" transform="translate(1263.03125 0)"/>
     <use xlink:href="#Inter-Bold-318" transform="translate(1298.6875 0)"/>
     <use xlink:href="#Inter-Bold-2d9" transform="translate(1360.015625 0)"/>
     <use xlink:href="#Inter-Bold-5b1" transform="translate(1418.03125 0)"/>
     <use xlink:href="#Inter-Bold-369" transform="translate(1456.84375 0)"/>
     <use xlink:href="#Inter-Bold-6eb" transform="translate(1512.84375 0)"/>
     <use xlink:href="#Inter-Bold-356" transform="translate(1536.53125 0)"/>
     <use xlink:href="#Inter-Bold-267" transform="translate(1574.8125 0)"/>
     <use xlink:href="#Inter-Bold-1fc" transform="translate(1635.375 0)"/>
     <use xlink:href="#Inter-Bold-256" transform="translate(1693.4375 0)"/>
     <use xlink:href="#Inter-Bold-5a0" transform="translate(1758.28125 0)"/>
    </g>
   </g>
  </g>
  <g id="axes_2">
   <g id="patch_9">
    <path d="M 541.749421 299.52 
L 838.08 299.52 
L 838.08 112.32 
L 541.749421 112.32 
z
" style="fill: #fcfcfb"/>
   </g>
   <g id="matplotlib.axis_3">
    <g id="xtick_9">
     <g id="line2d_22">
      <path d="M 541.749421 299.52 
L 541.749421 112.32 
" clip-path="url(#p344c4ac481)" style="fill: none; stroke: #e6e5e0; stroke-width: 0.8; stroke-linecap: square"/>
     </g>
     <g id="line2d_23"/>
     <g id="text_20">
      <!-- 0 -->
      <g style="fill: #52514e" transform="translate(537.963796 314.645) scale(0.12 -0.12)">
       <use xlink:href="#Inter-Regular-53f"/>
      </g>
     </g>
    </g>
    <g id="xtick_10">
     <g id="line2d_24">
      <path d="M 579.985625 299.52 
L 579.985625 112.32 
" clip-path="url(#p344c4ac481)" style="fill: none; stroke: #e6e5e0; stroke-width: 0.8; stroke-linecap: square"/>
     </g>
     <g id="line2d_25"/>
     <g id="text_21">
      <!-- 20 -->
      <g style="fill: #52514e" transform="translate(572.540938 314.645) scale(0.12 -0.12)">
       <use xlink:href="#Inter-Regular-541"/>
       <use xlink:href="#Inter-Regular-53f" transform="translate(60.984375 0)"/>
      </g>
     </g>
    </g>
    <g id="xtick_11">
     <g id="line2d_26">
      <path d="M 618.221829 299.52 
L 618.221829 112.32 
" clip-path="url(#p344c4ac481)" style="fill: none; stroke: #e6e5e0; stroke-width: 0.8; stroke-linecap: square"/>
     </g>
     <g id="line2d_27"/>
     <g id="text_22">
      <!-- 40 -->
      <g style="fill: #52514e" transform="translate(610.560579 314.645) scale(0.12 -0.12)">
       <defs>
        <path id="Inter-Regular-544" d="M 375 947 
L 2566 947 
L 2566 0 
L 3134 0 
L 3134 947 
L 3766 947 
L 3766 1469 
L 3134 1469 
L 3134 4656 
L 2413 4656 
L 375 1431 
L 375 947 
z
M 2569 1469 
L 1009 1469 
L 1009 1506 
L 2531 3913 
L 2569 3913 
L 2569 1469 
z
" transform="scale(0.015625)"/>
       </defs>
       <use xlink:href="#Inter-Regular-544"/>
       <use xlink:href="#Inter-Regular-53f" transform="translate(64.59375 0)"/>
      </g>
     </g>
    </g>
    <g id="xtick_12">
     <g id="line2d_28">
      <path d="M 656.458033 299.52 
L 656.458033 112.32 
" clip-path="url(#p344c4ac481)" style="fill: none; stroke: #e6e5e0; stroke-width: 0.8; stroke-linecap: square"/>
     </g>
     <g id="line2d_29"/>
     <g id="text_23">
      <!-- 60 -->
      <g style="fill: #52514e" transform="translate(648.95147 314.645) scale(0.12 -0.12)">
       <defs>
        <path id="Inter-Regular-547" d="M 2019 -63 
C 2969 -63 3588 634 3588 1503 
C 3588 2403 2925 3044 2128 3044 
C 1644 3044 1231 2813 981 2425 
L 944 2425 
C 944 3544 1375 4194 2091 4194 
C 2575 4194 2866 3888 2969 3484 
L 3550 3484 
C 3438 4216 2872 4719 2091 4719 
C 1034 4719 381 3788 381 2150 
C 381 434 1241 -63 2019 -63 
z
M 2019 459 
C 1447 459 1028 947 1028 1497 
C 1028 2041 1469 2528 2034 2528 
C 2597 2528 3013 2072 3013 1503 
C 3013 922 2578 459 2019 459 
z
" transform="scale(0.015625)"/>
       </defs>
       <use xlink:href="#Inter-Regular-547"/>
       <use xlink:href="#Inter-Regular-53f" transform="translate(62.015625 0)"/>
      </g>
     </g>
    </g>
    <g id="xtick_13">
     <g id="line2d_30">
      <path d="M 694.694236 299.52 
L 694.694236 112.32 
" clip-path="url(#p344c4ac481)" style="fill: none; stroke: #e6e5e0; stroke-width: 0.8; stroke-linecap: square"/>
     </g>
     <g id="line2d_31"/>
     <g id="text_24">
      <!-- 80 -->
      <g style="fill: #52514e" transform="translate(687.197049 314.645) scale(0.12 -0.12)">
       <defs>
        <path id="Inter-Regular-549" d="M 1978 -63 
C 2916 -63 3578 478 3578 1238 
C 3578 1825 3175 2325 2669 2419 
L 2669 2444 
C 3109 2559 3403 2988 3403 3481 
C 3403 4191 2794 4719 1978 4719 
C 1150 4719 550 4191 550 3481 
C 550 2988 838 2559 1291 2444 
L 1291 2419 
C 769 2325 381 1825 381 1238 
C 381 478 1031 -63 1978 -63 
z
M 1978 453 
C 1350 453 966 775 966 1269 
C 966 1784 1391 2153 1978 2153 
C 2553 2153 2984 1784 2984 1269 
C 2984 775 2594 453 1978 453 
z
M 1978 2650 
C 1475 2650 1125 2966 1125 3438 
C 1125 3903 1463 4206 1978 4206 
C 2484 4206 2828 3903 2828 3438 
C 2828 2966 2469 2650 1978 2650 
z
" transform="scale(0.015625)"/>
       </defs>
       <use xlink:href="#Inter-Regular-549"/>
       <use xlink:href="#Inter-Regular-53f" transform="translate(61.859375 0)"/>
      </g>
     </g>
    </g>
    <g id="xtick_14">
     <g id="line2d_32">
      <path d="M 732.93044 299.52 
L 732.93044 112.32 
" clip-path="url(#p344c4ac481)" style="fill: none; stroke: #e6e5e0; stroke-width: 0.8; stroke-linecap: square"/>
     </g>
     <g id="line2d_33"/>
     <g id="text_25">
      <!-- 100 -->
      <g style="fill: #52514e" transform="translate(722.918877 314.645) scale(0.12 -0.12)">
       <use xlink:href="#Inter-Regular-540"/>
       <use xlink:href="#Inter-Regular-53f" transform="translate(40.671875 0)"/>
       <use xlink:href="#Inter-Regular-53f" transform="translate(103.765625 0)"/>
      </g>
     </g>
    </g>
    <g id="xtick_15">
     <g id="line2d_34">
      <path d="M 771.166644 299.52 
L 771.166644 112.32 
" clip-path="url(#p344c4ac481)" style="fill: none; stroke: #e6e5e0; stroke-width: 0.8; stroke-linecap: square"/>
     </g>
     <g id="line2d_35"/>
     <g id="text_26">
      <!-- 120 -->
      <g style="fill: #52514e" transform="translate(761.281644 314.645) scale(0.12 -0.12)">
       <use xlink:href="#Inter-Regular-540"/>
       <use xlink:href="#Inter-Regular-541" transform="translate(40.671875 0)"/>
       <use xlink:href="#Inter-Regular-53f" transform="translate(101.65625 0)"/>
      </g>
     </g>
    </g>
    <g id="xtick_16">
     <g id="line2d_36">
      <path d="M 809.402847 299.52 
L 809.402847 112.32 
" clip-path="url(#p344c4ac481)" style="fill: none; stroke: #e6e5e0; stroke-width: 0.8; stroke-linecap: square"/>
     </g>
     <g id="line2d_37"/>
     <g id="text_27">
      <!-- 140 -->
      <g style="fill: #52514e" transform="translate(799.301285 314.645) scale(0.12 -0.12)">
       <use xlink:href="#Inter-Regular-540"/>
       <use xlink:href="#Inter-Regular-544" transform="translate(40.671875 0)"/>
       <use xlink:href="#Inter-Regular-53f" transform="translate(105.265625 0)"/>
      </g>
     </g>
    </g>
   </g>
   <g id="matplotlib.axis_4">
    <g id="ytick_6">
     <g id="line2d_38"/>
     <g id="text_28">
      <!-- A -->
      <g style="fill: #0b0b0b" transform="translate(529.969421 142.191057) scale(0.12 -0.12)">
       <use xlink:href="#Inter-Regular-2"/>
      </g>
     </g>
    </g>
    <g id="ytick_7">
     <g id="line2d_39"/>
     <g id="text_29">
      <!-- B -->
      <g style="fill: #0b0b0b" transform="translate(530.396921 188.552019) scale(0.12 -0.12)">
       <defs>
        <path id="Inter-Regular-41" d="M 563 0 
L 2266 0 
C 3363 0 3825 538 3825 1241 
C 3825 1972 3316 2372 2881 2400 
L 2881 2444 
C 3288 2553 3644 2825 3644 3422 
C 3644 4103 3184 4656 2213 4656 
L 563 4656 
L 563 0 
z
M 1156 525 
L 1156 2113 
L 2281 2113 
C 2878 2113 3253 1713 3253 1247 
C 3253 844 2975 525 2250 525 
L 1156 525 
z
M 1156 2613 
L 1156 4131 
L 2200 4131 
C 2803 4131 3075 3813 3075 3409 
C 3075 2928 2681 2613 2181 2613 
L 1156 2613 
z
" transform="scale(0.015625)"/>
       </defs>
       <use xlink:href="#Inter-Regular-41"/>
      </g>
     </g>
    </g>
    <g id="ytick_8">
     <g id="line2d_40"/>
     <g id="text_30">
      <!-- C -->
      <g style="fill: #0b0b0b" transform="translate(529.483796 234.912981) scale(0.12 -0.12)">
       <use xlink:href="#Inter-Regular-49"/>
      </g>
     </g>
    </g>
    <g id="ytick_9">
     <g id="line2d_41"/>
     <g id="text_31">
      <!-- C, verified -->
      <g style="fill: #0b0b0b" transform="translate(479.843171 281.273943) scale(0.12 -0.12)">
       <use xlink:href="#Inter-Regular-49"/>
       <use xlink:href="#Inter-Regular-5df" transform="translate(73.046875 0)"/>
       <use xlink:href="#Inter-Regular-6eb" transform="translate(101.859375 0)"/>
       <use xlink:href="#Inter-Regular-3d6" transform="translate(129.984375 0)"/>
       <use xlink:href="#Inter-Regular-267" transform="translate(184.234375 0)"/>
       <use xlink:href="#Inter-Regular-356" transform="translate(242.53125 0)"/>
       <use xlink:href="#Inter-Regular-2b2" transform="translate(281.734375 0)"/>
       <use xlink:href="#Inter-Regular-288" transform="translate(305.953125 0)"/>
       <use xlink:href="#Inter-Regular-2b2" transform="translate(342.96875 0)"/>
       <use xlink:href="#Inter-Regular-267" transform="translate(367.1875 0)"/>
       <use xlink:href="#Inter-Regular-256" transform="translate(425.484375 0)"/>
      </g>
     </g>
    </g>
   </g>
   <g id="patch_10">
    <path d="M 541.749421 120.829091 
L 748.03374 120.829091 
L 748.03374 151.928024 
L 541.749421 151.928024 
z
" clip-path="url(#p344c4ac481)" style="fill: #b9b8b1; stroke: #b9b8b1; stroke-width: 2; stroke-linejoin: miter"/>
   </g>
   <g id="patch_11">
    <path d="M 541.749421 167.190053 
L 762.94586 167.190053 
L 762.94586 198.288986 
L 541.749421 198.288986 
z
" clip-path="url(#p344c4ac481)" style="fill: #2a78d6; stroke: #fcfcfb; stroke-width: 2; stroke-linejoin: miter"/>
   </g>
   <g id="patch_12">
    <path d="M 541.749421 213.551014 
L 765.431213 213.551014 
L 765.431213 244.649947 
L 541.749421 244.649947 
z
" clip-path="url(#p344c4ac481)" style="fill: #2a78d6; stroke: #fcfcfb; stroke-width: 2; stroke-linejoin: miter"/>
   </g>
   <g id="patch_13">
    <path d="M 541.749421 259.911976 
L 788.181754 259.911976 
L 788.181754 291.010909 
L 541.749421 291.010909 
z
" clip-path="url(#p344c4ac481)" style="fill: #2a78d6; stroke: #fcfcfb; stroke-width: 2; stroke-linejoin: miter"/>
   </g>
   <g id="patch_14">
    <path d="M 541.749421 299.52 
L 838.08 299.52 
" style="fill: none; stroke: #e6e5e0; stroke-width: 0.8; stroke-linejoin: miter; stroke-linecap: square"/>
   </g>
   <g id="text_32">
    <!-- 107.9 -->
    <g style="fill: #52514e" transform="translate(751.589707 140.380022) scale(0.11 -0.11)">
     <defs>
      <path id="Inter-Regular-5e0" d="M 922 -41 
C 1156 -41 1344 147 1344 381 
C 1344 616 1156 803 922 803 
C 688 803 500 616 500 381 
C 500 147 688 -41 922 -41 
z
" transform="scale(0.015625)"/>
      <path id="Inter-Regular-54a" d="M 1884 -63 
C 2938 -63 3588 866 3588 2513 
C 3588 4225 2728 4706 1963 4719 
C 1006 4734 381 4025 381 3156 
C 381 2259 1044 1616 1847 1616 
C 2334 1616 2744 1856 2994 2238 
L 3031 2238 
C 3031 1109 2594 463 1884 463 
C 1394 463 1103 772 1006 1184 
L 419 1184 
C 528 441 1094 -63 1884 -63 
z
M 1934 2134 
C 1372 2134 963 2588 963 3159 
C 963 3734 1391 4197 1953 4197 
C 2525 4197 2947 3706 2947 3172 
C 2947 2625 2500 2134 1934 2134 
z
" transform="scale(0.015625)"/>
     </defs>
     <use xlink:href="#Inter-Regular-540"/>
     <use xlink:href="#Inter-Regular-53f" transform="translate(40.671875 0)"/>
     <use xlink:href="#Inter-Regular-548" transform="translate(101.8125 0)"/>
     <use xlink:href="#Inter-Regular-5e0" transform="translate(145.90625 0)"/>
     <use xlink:href="#Inter-Regular-54a" transform="translate(174.03125 0)"/>
    </g>
   </g>
   <g id="text_33">
    <!-- 115.7 -->
    <g style="fill: #0b0b0b" transform="translate(766.501827 186.740984) scale(0.11 -0.11)">
     <defs>
      <path id="Inter-Bold-5e0" d="M 1069 -59 
C 1375 -59 1609 175 1609 478 
C 1609 781 1375 1016 1069 1016 
C 763 1016 528 781 528 478 
C 528 175 763 -59 1069 -59 
z
" transform="scale(0.015625)"/>
      <path id="Inter-Bold-548" d="M 553 0 
L 1544 0 
L 3488 3856 
L 3488 4656 
L 234 4656 
L 234 3869 
L 2491 3869 
L 2491 3838 
L 553 0 
z
" transform="scale(0.015625)"/>
     </defs>
     <use xlink:href="#Inter-Bold-540"/>
     <use xlink:href="#Inter-Bold-540" transform="translate(43.109375 0)"/>
     <use xlink:href="#Inter-Bold-545" transform="translate(86.21875 0)"/>
     <use xlink:href="#Inter-Bold-5e0" transform="translate(147.84375 0)"/>
     <use xlink:href="#Inter-Bold-548" transform="translate(178.71875 0)"/>
    </g>
   </g>
   <g id="text_34">
    <!-- 117.0 -->
    <g style="fill: #0b0b0b" transform="translate(768.98718 233.101946) scale(0.11 -0.11)">
     <use xlink:href="#Inter-Bold-540"/>
     <use xlink:href="#Inter-Bold-540" transform="translate(43.109375 0)"/>
     <use xlink:href="#Inter-Bold-548" transform="translate(86.21875 0)"/>
     <use xlink:href="#Inter-Bold-5e0" transform="translate(131.875 0)"/>
     <use xlink:href="#Inter-Bold-53f" transform="translate(162.359375 0)"/>
    </g>
   </g>
   <g id="text_35">
    <!-- 128.9 -->
    <g style="fill: #0b0b0b" transform="translate(791.737721 279.462907) scale(0.11 -0.11)">
     <defs>
      <path id="Inter-Bold-549" d="M 2081 -63 
C 3122 -63 3875 494 3875 1250 
C 3875 1831 3425 2313 2872 2406 
L 2872 2434 
C 3356 2538 3703 2959 3703 3469 
C 3703 4184 3013 4719 2081 4719 
C 1147 4719 463 4188 463 3469 
C 463 2959 800 2538 1297 2434 
L 1297 2406 
C 728 2313 294 1831 294 1250 
C 294 494 1038 -63 2081 -63 
z
M 2081 644 
C 1600 644 1284 925 1284 1325 
C 1284 1738 1619 2031 2081 2031 
C 2541 2031 2878 1734 2878 1325 
C 2878 922 2559 644 2081 644 
z
M 2081 2731 
C 1681 2731 1394 2994 1394 3366 
C 1394 3741 1675 3991 2081 3991 
C 2488 3991 2769 3738 2769 3366 
C 2769 2994 2478 2731 2081 2731 
z
" transform="scale(0.015625)"/>
      <path id="Inter-Bold-54a" d="M 1988 -69 
C 3131 -69 3866 872 3866 2441 
C 3866 4144 2966 4719 2028 4725 
C 994 4731 294 4044 294 3103 
C 294 2228 903 1597 1731 1597 
C 2241 1597 2688 1847 2900 2250 
L 2931 2250 
C 2931 1328 2600 753 1988 753 
C 1619 753 1359 966 1284 1297 
L 341 1297 
C 434 525 1069 -69 1988 -69 
z
M 2022 2297 
C 1559 2297 1222 2656 1222 3128 
C 1222 3597 1569 3963 2028 3963 
C 2494 3963 2834 3584 2834 3134 
C 2834 2675 2481 2297 2022 2297 
z
" transform="scale(0.015625)"/>
     </defs>
     <use xlink:href="#Inter-Bold-540"/>
     <use xlink:href="#Inter-Bold-541" transform="translate(43.109375 0)"/>
     <use xlink:href="#Inter-Bold-549" transform="translate(106.09375 0)"/>
     <use xlink:href="#Inter-Bold-5e0" transform="translate(169.09375 0)"/>
     <use xlink:href="#Inter-Bold-54a" transform="translate(201.234375 0)"/>
    </g>
   </g>
   <g id="text_36">
    <!-- 4 users, total writing  (tok/s) -->
    <g style="fill: #0b0b0b" transform="translate(541.749421 100.32) scale(0.13 -0.13)">
     <defs>
      <path id="Inter-Bold-395" d="M 1603 -44 
C 2134 -44 2491 231 2688 725 
L 2700 0 
L 3588 0 
L 3588 3494 
L 2647 3494 
L 2647 1472 
C 2647 1009 2366 741 1969 741 
C 1575 741 1338 1000 1338 1434 
L 1338 3494 
L 400 3494 
L 400 1272 
C 400 453 878 -44 1603 -44 
z
" transform="scale(0.015625)"/>
      <path id="Inter-Bold-5df" d="M 372 -1234 
L 1009 -1234 
L 1584 703 
L 647 703 
L 372 -1234 
z
" transform="scale(0.015625)"/>
      <path id="Inter-Bold-3da" d="M 1128 0 
L 2081 0 
L 2469 1347 
C 2553 1641 2634 2041 2716 2409 
C 2797 2044 2878 1644 2966 1347 
L 3353 0 
L 4306 0 
L 5344 3494 
L 4347 3494 
L 4044 2203 
C 3953 1806 3856 1366 3766 850 
C 3666 1369 3553 1809 3466 2203 
L 3153 3494 
L 2291 3494 
L 1972 2203 
C 1878 1806 1766 1363 1669 853 
C 1575 1372 1469 1813 1384 2203 
L 1081 3494 
L 97 3494 
L 1128 0 
z
" transform="scale(0.015625)"/>
      <path id="Inter-Bold-2b2" d="M 400 0 
L 1338 0 
L 1338 3494 
L 400 3494 
L 400 0 
z
M 869 3950 
C 1150 3950 1384 4163 1384 4431 
C 1384 4697 1150 4913 869 4913 
C 584 4913 353 4697 353 4431 
C 353 4163 584 3950 869 3950 
z
" transform="scale(0.015625)"/>
      <path id="Inter-Bold-293" d="M 1953 -1381 
C 2938 -1381 3644 -919 3644 28 
L 3644 3494 
L 2722 3494 
L 2722 2906 
L 2681 2906 
C 2553 3184 2266 3538 1678 3538 
C 903 3538 253 2934 253 1753 
C 253 597 888 50 1675 50 
C 2241 50 2516 338 2644 619 
L 2716 619 
L 2716 -25 
C 2716 -484 2425 -700 1947 -700 
C 1491 -700 1275 -497 1188 -300 
L 381 -525 
C 534 -1025 1078 -1381 1953 -1381 
z
M 1969 763 
C 1481 763 1216 1150 1216 1759 
C 1216 2359 1475 2788 1969 2788 
C 2450 2788 2719 2378 2719 1759 
C 2719 1134 2447 763 1969 763 
z
" transform="scale(0.015625)"/>
     </defs>
     <use xlink:href="#Inter-Bold-544"/>
     <use xlink:href="#Inter-Bold-6eb" transform="translate(67.625 0)"/>
     <use xlink:href="#Inter-Bold-395" transform="translate(91.3125 0)"/>
     <use xlink:href="#Inter-Bold-369" transform="translate(153.5625 0)"/>
     <use xlink:href="#Inter-Bold-267" transform="translate(209.5625 0)"/>
     <use xlink:href="#Inter-Bold-356" transform="translate(269.140625 0)"/>
     <use xlink:href="#Inter-Bold-369" transform="translate(309.859375 0)"/>
     <use xlink:href="#Inter-Bold-5df" transform="translate(365.859375 0)"/>
     <use xlink:href="#Inter-Bold-6eb" transform="translate(396.1875 0)"/>
     <use xlink:href="#Inter-Bold-37b" transform="translate(419.875 0)"/>
     <use xlink:href="#Inter-Bold-318" transform="translate(455.53125 0)"/>
     <use xlink:href="#Inter-Bold-37b" transform="translate(516.859375 0)"/>
     <use xlink:href="#Inter-Bold-1fc" transform="translate(553.96875 0)"/>
     <use xlink:href="#Inter-Bold-2e2" transform="translate(612.03125 0)"/>
     <use xlink:href="#Inter-Bold-6eb" transform="translate(639.125 0)"/>
     <use xlink:href="#Inter-Bold-3da" transform="translate(662.8125 0)"/>
     <use xlink:href="#Inter-Bold-356" transform="translate(747.828125 0)"/>
     <use xlink:href="#Inter-Bold-2b2" transform="translate(789.28125 0)"/>
     <use xlink:href="#Inter-Bold-37b" transform="translate(816.375 0)"/>
     <use xlink:href="#Inter-Bold-2b2" transform="translate(853 0)"/>
     <use xlink:href="#Inter-Bold-307" transform="translate(880.09375 0)"/>
     <use xlink:href="#Inter-Bold-293" transform="translate(942.34375 0)"/>
     <use xlink:href="#Inter-Bold-6eb" transform="translate(1005.53125 0)"/>
     <use xlink:href="#Inter-Bold-6eb" transform="translate(1029.21875 0)"/>
     <use xlink:href="#Inter-Bold-59f" transform="translate(1052.90625 0)"/>
     <use xlink:href="#Inter-Bold-37b" transform="translate(1090.609375 0)"/>
     <use xlink:href="#Inter-Bold-318" transform="translate(1126.265625 0)"/>
     <use xlink:href="#Inter-Bold-2d9" transform="translate(1187.59375 0)"/>
     <use xlink:href="#Inter-Bold-5b1" transform="translate(1245.609375 0)"/>
     <use xlink:href="#Inter-Bold-369" transform="translate(1284.421875 0)"/>
     <use xlink:href="#Inter-Bold-5a0" transform="translate(1340.421875 0)"/>
    </g>
   </g>
  </g>
  <g id="text_37">
   <!-- GLM 5.3 Flash · vLLM EXL3 TP4 · 4× Spark -->
   <g style="fill: #0b0b0b" transform="translate(30.24 44.61425) scale(0.19 -0.19)">
    <defs>
     <path id="Inter-Bold-8d" d="M 2484 -63 
C 3653 -63 4494 678 4494 1900 
L 4494 2481 
L 2556 2481 
L 2556 1756 
L 3569 1756 
C 3553 1159 3153 784 2491 784 
C 1744 784 1263 1344 1263 2331 
C 1263 3319 1759 3872 2478 3872 
C 2997 3872 3347 3600 3478 3156 
L 4447 3156 
C 4316 4075 3509 4719 2463 4719 
C 1238 4719 294 3831 294 2322 
C 294 850 1178 -63 2484 -63 
z
" transform="scale(0.015625)"/>
     <path id="Inter-Bold-11a" d="M 422 0 
L 3384 0 
L 3384 791 
L 1375 791 
L 1375 4656 
L 422 4656 
L 422 0 
z
" transform="scale(0.015625)"/>
     <path id="Inter-Bold-125" d="M 422 0 
L 1369 0 
L 1369 2197 
C 1369 2547 1344 3231 1334 3797 
C 1500 3172 1688 2519 1797 2197 
L 2581 0 
L 3384 0 
L 4156 2197 
C 4266 2528 4463 3206 4619 3834 
C 4609 3247 4584 2547 4584 2197 
L 4584 0 
L 5544 0 
L 5544 4656 
L 4075 4656 
L 3331 2519 
C 3238 2222 3094 1600 2988 1097 
C 2878 1603 2734 2225 2641 2519 
L 1884 4656 
L 422 4656 
L 422 0 
z
" transform="scale(0.015625)"/>
     <path id="Inter-Bold-543" d="M 2059 -63 
C 3097 -63 3838 509 3838 1303 
C 3838 1881 3475 2297 2797 2388 
L 2797 2422 
C 3313 2522 3669 2891 3669 3413 
C 3669 4141 3031 4719 2075 4719 
C 1128 4719 413 4163 400 3366 
L 1319 3366 
C 1328 3728 1663 3956 2069 3956 
C 2472 3956 2744 3713 2744 3353 
C 2744 2981 2428 2728 1975 2728 
L 1544 2728 
L 1544 2019 
L 1975 2019 
C 2516 2019 2844 1750 2844 1366 
C 2844 988 2522 728 2063 728 
C 1622 728 1284 956 1269 1306 
L 309 1306 
C 322 497 1047 -63 2059 -63 
z
" transform="scale(0.015625)"/>
     <path id="Inter-Bold-89" d="M 422 0 
L 1375 0 
L 1375 1788 
L 3278 1788 
L 3278 2566 
L 1375 2566 
L 1375 3866 
L 3484 3866 
L 3484 4656 
L 422 4656 
L 422 0 
z
" transform="scale(0.015625)"/>
     <path id="Inter-Bold-29f" d="M 1338 2022 
C 1338 2484 1616 2753 2016 2753 
C 2409 2753 2647 2494 2647 2059 
L 2647 0 
L 3588 0 
L 3588 2222 
C 3588 3041 3109 3538 2384 3538 
C 1866 3538 1522 3281 1319 2825 
L 1319 4656 
L 400 4656 
L 400 0 
L 1338 0 
L 1338 2022 
z
" transform="scale(0.015625)"/>
     <path id="Inter-Bold-5e7" d="M 1069 1672 
C 1375 1672 1609 1903 1609 2206 
C 1609 2513 1375 2744 1069 2744 
C 763 2744 528 2513 528 2206 
C 528 1903 763 1672 1069 1672 
z
" transform="scale(0.015625)"/>
     <path id="Inter-Bold-3d6" d="M 1384 0 
L 2450 0 
L 3741 3494 
L 2756 3494 
L 2175 1681 
C 2078 1366 2003 1053 1931 728 
C 1856 1053 1778 1369 1681 1681 
L 1094 3494 
L 97 3494 
L 1384 0 
z
" transform="scale(0.015625)"/>
     <path id="Inter-Bold-5f" d="M 422 0 
L 3544 0 
L 3544 791 
L 1375 791 
L 1375 1963 
L 3375 1963 
L 3375 2741 
L 1375 2741 
L 1375 3866 
L 3538 3866 
L 3538 4656 
L 422 4656 
L 422 0 
z
" transform="scale(0.015625)"/>
     <path id="Inter-Bold-1d3" d="M 159 0 
L 1263 0 
L 1931 975 
C 2153 1303 2241 1481 2363 1706 
C 2484 1478 2572 1303 2788 975 
L 3434 0 
L 4566 0 
L 2919 2409 
L 4428 4656 
L 3347 4656 
L 2828 3875 
C 2609 3541 2497 3297 2372 3044 
C 2250 3297 2141 3541 1925 3875 
L 1416 4656 
L 309 4656 
L 1831 2381 
L 159 0 
z
" transform="scale(0.015625)"/>
     <path id="Inter-Bold-19c" d="M 234 3866 
L 1659 3866 
L 1659 0 
L 2616 0 
L 2616 3866 
L 4038 3866 
L 4038 4656 
L 234 4656 
L 234 3866 
z
" transform="scale(0.015625)"/>
     <path id="Inter-Bold-178" d="M 422 0 
L 1375 0 
L 1375 1522 
L 2216 1522 
C 3288 1522 3903 2163 3903 3084 
C 3903 4000 3297 4656 2238 4656 
L 422 4656 
L 422 0 
z
M 1375 2291 
L 1375 3869 
L 2059 3869 
C 2644 3869 2919 3553 2919 3084 
C 2919 2616 2644 2291 2063 2291 
L 1375 2291 
z
" transform="scale(0.015625)"/>
     <path id="Inter-Bold-603" d="M 3241 684 
L 3819 1266 
L 2759 2328 
L 3819 3384 
L 3241 3975 
L 2178 2909 
L 1116 3975 
L 534 3384 
L 1594 2328 
L 534 1266 
L 1116 684 
L 2178 1747 
L 3241 684 
z
" transform="scale(0.015625)"/>
     <path id="Inter-Bold-18e" d="M 2128 -69 
C 3259 -69 3925 478 3925 1325 
C 3925 2106 3319 2506 2534 2688 
L 2113 2791 
C 1719 2884 1369 3031 1369 3378 
C 1369 3691 1644 3916 2131 3916 
C 2609 3916 2906 3700 2941 3328 
L 3863 3328 
C 3847 4147 3172 4719 2141 4719 
C 1128 4719 391 4156 391 3316 
C 391 2638 863 2241 1650 2050 
L 2163 1922 
C 2669 1797 2966 1650 2966 1331 
C 2966 978 2628 738 2119 738 
C 1603 738 1225 972 1194 1444 
L 266 1444 
C 294 453 1009 -69 2128 -69 
z
" transform="scale(0.015625)"/>
    </defs>
    <use xlink:href="#Inter-Bold-8d"/>
    <use xlink:href="#Inter-Bold-11a" transform="translate(75.046875 0)"/>
    <use xlink:href="#Inter-Bold-125" transform="translate(131.59375 0)"/>
    <use xlink:href="#Inter-Bold-6eb" transform="translate(224.765625 0)"/>
    <use xlink:href="#Inter-Bold-545" transform="translate(248.453125 0)"/>
    <use xlink:href="#Inter-Bold-5e0" transform="translate(310.078125 0)"/>
    <use xlink:href="#Inter-Bold-543" transform="translate(341.1875 0)"/>
    <use xlink:href="#Inter-Bold-6eb" transform="translate(405.734375 0)"/>
    <use xlink:href="#Inter-Bold-89" transform="translate(429.421875 0)"/>
    <use xlink:href="#Inter-Bold-2e2" transform="translate(488.109375 0)"/>
    <use xlink:href="#Inter-Bold-1fc" transform="translate(515.203125 0)"/>
    <use xlink:href="#Inter-Bold-369" transform="translate(573.265625 0)"/>
    <use xlink:href="#Inter-Bold-29f" transform="translate(629.265625 0)"/>
    <use xlink:href="#Inter-Bold-6eb" transform="translate(691.515625 0)"/>
    <use xlink:href="#Inter-Bold-5e7" transform="translate(715.203125 0)"/>
    <use xlink:href="#Inter-Bold-6eb" transform="translate(748.609375 0)"/>
    <use xlink:href="#Inter-Bold-3d6" transform="translate(772.296875 0)"/>
    <use xlink:href="#Inter-Bold-11a" transform="translate(832.515625 0)"/>
    <use xlink:href="#Inter-Bold-11a" transform="translate(889.0625 0)"/>
    <use xlink:href="#Inter-Bold-125" transform="translate(945.609375 0)"/>
    <use xlink:href="#Inter-Bold-6eb" transform="translate(1038.78125 0)"/>
    <use xlink:href="#Inter-Bold-5f" transform="translate(1062.46875 0)"/>
    <use xlink:href="#Inter-Bold-1d3" transform="translate(1123.21875 0)"/>
    <use xlink:href="#Inter-Bold-11a" transform="translate(1197.046875 0)"/>
    <use xlink:href="#Inter-Bold-543" transform="translate(1253.59375 0)"/>
    <use xlink:href="#Inter-Bold-6eb" transform="translate(1318.140625 0)"/>
    <use xlink:href="#Inter-Bold-19c" transform="translate(1341.828125 0)"/>
    <use xlink:href="#Inter-Bold-178" transform="translate(1408.578125 0)"/>
    <use xlink:href="#Inter-Bold-544" transform="translate(1473.375 0)"/>
    <use xlink:href="#Inter-Bold-6eb" transform="translate(1541 0)"/>
    <use xlink:href="#Inter-Bold-5e7" transform="translate(1564.6875 0)"/>
    <use xlink:href="#Inter-Bold-6eb" transform="translate(1598.09375 0)"/>
    <use xlink:href="#Inter-Bold-544" transform="translate(1621.78125 0)"/>
    <use xlink:href="#Inter-Bold-603" transform="translate(1689.40625 0)"/>
    <use xlink:href="#Inter-Bold-6eb" transform="translate(1757.28125 0)"/>
    <use xlink:href="#Inter-Bold-18e" transform="translate(1780.96875 0)"/>
    <use xlink:href="#Inter-Bold-34d" transform="translate(1846.453125 0)"/>
    <use xlink:href="#Inter-Bold-1fc" transform="translate(1910.46875 0)"/>
    <use xlink:href="#Inter-Bold-356" transform="translate(1968.53125 0)"/>
    <use xlink:href="#Inter-Bold-2d9" transform="translate(2010.8125 0)"/>
   </g>
  </g>
  <g id="text_38">
   <!-- EXL3 4bpw · DFlash2 k=7 · 1M context · tuning 2026-09-02 → 03 · stopped -->
   <g style="fill: #52514e" transform="translate(30.24 65.913) scale(0.12 -0.12)">
    <defs>
     <path id="Inter-Regular-1d3" d="M 178 0 
L 853 0 
L 1675 1181 
C 1916 1525 2031 1706 2184 2000 
C 2341 1694 2453 1522 2688 1181 
L 3503 0 
L 4188 0 
L 2534 2406 
L 4100 4656 
L 3428 4656 
L 2744 3669 
C 2469 3272 2356 3091 2191 2766 
C 2022 3094 1913 3269 1641 3669 
L 969 4656 
L 281 4656 
L 1847 2384 
L 178 0 
z
" transform="scale(0.015625)"/>
     <path id="Inter-Regular-11a" d="M 563 0 
L 3313 0 
L 3313 525 
L 1156 525 
L 1156 4656 
L 563 4656 
L 563 0 
z
" transform="scale(0.015625)"/>
     <path id="Inter-Regular-34d" d="M 494 -1306 
L 1056 -1306 
L 1056 541 
L 1100 541 
C 1216 347 1450 -75 2116 -75 
C 2988 -75 3594 625 3594 1738 
C 3594 2844 2984 3538 2113 3538 
C 1431 3538 1216 3119 1100 2934 
L 1038 2934 
L 1038 3494 
L 494 3494 
L 494 -1306 
z
M 2031 428 
C 1397 428 1050 966 1050 1744 
C 1050 2516 1388 3034 2031 3034 
C 2694 3034 3022 2469 3022 1744 
C 3022 1009 2684 428 2031 428 
z
" transform="scale(0.015625)"/>
     <path id="Inter-Regular-3da" d="M 1278 0 
L 1838 0 
L 2291 1581 
C 2403 1972 2513 2409 2619 2853 
C 2725 2406 2831 1981 2947 1581 
L 3400 0 
L 3959 0 
L 5019 3494 
L 4422 3494 
L 3997 1969 
C 3891 1588 3775 1147 3659 613 
C 3550 1153 3438 1597 3338 1969 
L 2925 3494 
L 2325 3494 
L 1906 1969 
C 1800 1581 1688 1134 1575 603 
C 1459 1159 1341 1603 1241 1969 
L 816 3494 
L 219 3494 
L 1278 0 
z
" transform="scale(0.015625)"/>
     <path id="Inter-Regular-5e7" d="M 922 1791 
C 1156 1791 1344 1978 1344 2213 
C 1344 2447 1156 2634 922 2634 
C 688 2634 500 2447 500 2213 
C 500 1978 688 1791 922 1791 
z
" transform="scale(0.015625)"/>
     <path id="Inter-Regular-54" d="M 2016 0 
C 3434 0 4238 881 4238 2338 
C 4238 3781 3434 4656 2075 4656 
L 563 4656 
L 563 0 
L 2016 0 
z
M 1156 525 
L 1156 4131 
L 2034 4131 
C 3113 4131 3663 3456 3663 2338 
C 3663 1206 3113 525 1978 525 
L 1156 525 
z
" transform="scale(0.015625)"/>
     <path id="Inter-Regular-89" d="M 563 0 
L 1156 0 
L 1156 2013 
L 3166 2013 
L 3166 2538 
L 1156 2538 
L 1156 4131 
L 3378 4131 
L 3378 4656 
L 563 4656 
L 563 0 
z
" transform="scale(0.015625)"/>
     <path id="Inter-Regular-1fc" d="M 1472 -81 
C 2063 -81 2391 228 2509 475 
L 2547 475 
L 2547 0 
L 3100 0 
L 3100 2303 
C 3100 3394 2259 3538 1791 3538 
C 1250 3538 650 3344 381 2709 
L 922 2531 
C 1031 2775 1303 3044 1806 3044 
C 2291 3044 2538 2794 2538 2359 
L 2538 2341 
C 2538 2081 2263 2100 1641 2022 
C 994 1941 281 1794 281 994 
C 281 306 809 -81 1472 -81 
z
M 1569 416 
C 1150 416 847 603 847 966 
C 847 1363 1206 1494 1616 1547 
C 1831 1575 2444 1638 2538 1747 
L 2538 1263 
C 2538 834 2191 416 1569 416 
z
" transform="scale(0.015625)"/>
     <path id="Inter-Regular-369" d="M 1681 -75 
C 2500 -75 3059 372 3059 984 
C 3059 1463 2763 1778 2128 1928 
L 1600 2053 
C 1191 2150 1013 2294 1013 2553 
C 1013 2844 1325 3059 1741 3059 
C 2191 3059 2388 2816 2484 2566 
L 2994 2697 
C 2834 3188 2456 3538 1738 3538 
C 994 3538 444 3119 444 2519 
C 444 2028 747 1716 1381 1566 
L 1963 1428 
C 2306 1347 2475 1188 2475 947 
C 2475 659 2163 419 1675 419 
C 1256 419 972 591 872 975 
L 338 847 
C 463 244 963 -75 1681 -75 
z
" transform="scale(0.015625)"/>
     <path id="Inter-Regular-29f" d="M 1056 2094 
C 1056 2691 1434 3031 1938 3031 
C 2425 3031 2725 2709 2725 2172 
L 2725 0 
L 3291 0 
L 3291 2219 
C 3291 3103 2813 3538 2106 3538 
C 1650 3538 1284 3353 1056 2888 
L 1056 4656 
L 494 4656 
L 494 0 
L 1056 0 
L 1056 2094 
z
" transform="scale(0.015625)"/>
     <path id="Inter-Regular-5f2" d="M 706 884 
L 3531 884 
L 3531 1403 
L 706 1403 
L 706 884 
z
M 706 2241 
L 3531 2241 
L 3531 2759 
L 706 2759 
L 706 2241 
z
" transform="scale(0.015625)"/>
     <path id="Inter-Regular-125" d="M 563 0 
L 1128 0 
L 1128 2659 
C 1128 3019 1116 3569 1106 4013 
C 1291 3466 1472 2922 1575 2659 
L 2631 0 
L 3147 0 
L 4188 2659 
C 4294 2931 4488 3491 4656 4022 
C 4644 3538 4634 3003 4634 2659 
L 4634 0 
L 5219 0 
L 5219 4656 
L 4372 4656 
L 3241 1719 
C 3150 1484 3006 1025 2897 659 
C 2788 1038 2641 1494 2553 1719 
L 1406 4656 
L 563 4656 
L 563 0 
z
" transform="scale(0.015625)"/>
     <path id="Inter-Regular-24b" d="M 1916 -75 
C 2600 -75 3156 297 3344 919 
L 2806 1072 
C 2703 694 2384 428 1916 428 
C 1219 428 897 1038 897 1725 
C 897 2422 1219 3034 1916 3034 
C 2375 3034 2688 2778 2791 2419 
L 3331 2572 
C 3141 3181 2591 3538 1916 3538 
C 966 3538 325 2819 325 1725 
C 325 647 966 -75 1916 -75 
z
" transform="scale(0.015625)"/>
     <path id="Inter-Regular-37b" d="M 1869 3494 
L 1150 3494 
L 1150 4325 
L 588 4325 
L 588 3494 
L 63 3494 
L 63 3013 
L 588 3013 
L 588 863 
C 588 291 944 -44 1547 -44 
C 1691 -44 1850 -22 1966 19 
L 1850 494 
C 1756 475 1634 456 1563 456 
C 1266 456 1150 594 1150 906 
L 1150 3013 
L 1869 3013 
L 1869 3494 
z
" transform="scale(0.015625)"/>
     <path id="Inter-Regular-3e3" d="M 203 0 
L 853 0 
L 1372 784 
C 1528 1022 1634 1234 1741 1431 
C 1856 1234 1972 1022 2125 784 
L 2638 0 
L 3291 0 
L 2066 1763 
L 3234 3494 
L 2591 3494 
L 2147 2816 
C 1984 2569 1878 2344 1766 2134 
C 1644 2344 1525 2569 1366 2816 
L 931 3494 
L 275 3494 
L 1431 1794 
L 203 0 
z
" transform="scale(0.015625)"/>
     <path id="Inter-Regular-395" d="M 1678 -44 
C 2138 -44 2519 144 2747 653 
L 2747 0 
L 3291 0 
L 3291 3494 
L 2725 3494 
L 2725 1400 
C 2725 803 2347 463 1847 463 
C 1359 463 1056 784 1056 1322 
L 1056 3494 
L 494 3494 
L 494 1275 
C 494 391 972 -44 1678 -44 
z
" transform="scale(0.015625)"/>
     <path id="Inter-Regular-293" d="M 1909 -1381 
C 2759 -1381 3431 -994 3431 -91 
L 3431 3494 
L 2884 3494 
L 2884 2934 
L 2831 2934 
C 2713 3122 2488 3538 1813 3538 
C 941 3538 325 2844 325 1763 
C 325 666 963 56 1800 56 
C 2475 56 2697 441 2816 641 
L 2869 641 
L 2869 -59 
C 2869 -634 2466 -891 1909 -891 
C 1294 -891 1075 -578 928 -375 
L 472 -669 
C 688 -1053 1134 -1381 1909 -1381 
z
M 1894 556 
C 1238 556 897 1056 897 1775 
C 897 2472 1228 3034 1894 3034 
C 2538 3034 2875 2516 2875 1775 
C 2875 1013 2528 556 1894 556 
z
" transform="scale(0.015625)"/>
     <path id="Inter-Regular-5c1" d="M 2494 2581 
L 450 2581 
L 450 2063 
L 2494 2063 
L 2494 2581 
z
" transform="scale(0.015625)"/>
     <path id="Inter-Regular-71f" d="M 3438 291 
L 5475 2328 
L 3438 4366 
L 3075 4003 
L 3734 3347 
C 4009 3072 4413 2741 4725 2500 
C 4488 2547 4247 2588 4006 2588 
L 800 2588 
L 800 2069 
L 4006 2069 
C 4247 2069 4488 2109 4725 2156 
C 4413 1916 4009 1584 3734 1309 
L 3075 653 
L 3438 291 
z
" transform="scale(0.015625)"/>
    </defs>
    <use xlink:href="#Inter-Regular-5f"/>
    <use xlink:href="#Inter-Regular-1d3" transform="translate(60.109375 0)"/>
    <use xlink:href="#Inter-Regular-11a" transform="translate(128.328125 0)"/>
    <use xlink:href="#Inter-Regular-543" transform="translate(184.875 0)"/>
    <use xlink:href="#Inter-Regular-6eb" transform="translate(246.640625 0)"/>
    <use xlink:href="#Inter-Regular-544" transform="translate(274.765625 0)"/>
    <use xlink:href="#Inter-Regular-243" transform="translate(339.359375 0)"/>
    <use xlink:href="#Inter-Regular-34d" transform="translate(400.59375 0)"/>
    <use xlink:href="#Inter-Regular-3da" transform="translate(460.015625 0)"/>
    <use xlink:href="#Inter-Regular-6eb" transform="translate(541.859375 0)"/>
    <use xlink:href="#Inter-Regular-5e7" transform="translate(569.984375 0)"/>
    <use xlink:href="#Inter-Regular-6eb" transform="translate(598.796875 0)"/>
    <use xlink:href="#Inter-Regular-54" transform="translate(626.921875 0)"/>
    <use xlink:href="#Inter-Regular-89" transform="translate(699.09375 0)"/>
    <use xlink:href="#Inter-Regular-2e2" transform="translate(758.125 0)"/>
    <use xlink:href="#Inter-Regular-1fc" transform="translate(782.34375 0)"/>
    <use xlink:href="#Inter-Regular-369" transform="translate(838.5 0)"/>
    <use xlink:href="#Inter-Regular-29f" transform="translate(891.28125 0)"/>
    <use xlink:href="#Inter-Regular-541" transform="translate(950.40625 0)"/>
    <use xlink:href="#Inter-Regular-6eb" transform="translate(1011.390625 0)"/>
    <use xlink:href="#Inter-Regular-2d9" transform="translate(1039.515625 0)"/>
    <use xlink:href="#Inter-Regular-5f2" transform="translate(1094.40625 0)"/>
    <use xlink:href="#Inter-Regular-548" transform="translate(1160.5625 0)"/>
    <use xlink:href="#Inter-Regular-6eb" transform="translate(1217.15625 0)"/>
    <use xlink:href="#Inter-Regular-5e7" transform="translate(1245.28125 0)"/>
    <use xlink:href="#Inter-Regular-6eb" transform="translate(1274.09375 0)"/>
    <use xlink:href="#Inter-Regular-540" transform="translate(1302.21875 0)"/>
    <use xlink:href="#Inter-Regular-125" transform="translate(1342.890625 0)"/>
    <use xlink:href="#Inter-Regular-6eb" transform="translate(1433.21875 0)"/>
    <use xlink:href="#Inter-Regular-24b" transform="translate(1461.34375 0)"/>
    <use xlink:href="#Inter-Regular-318" transform="translate(1518.46875 0)"/>
    <use xlink:href="#Inter-Regular-307" transform="translate(1578.4375 0)"/>
    <use xlink:href="#Inter-Regular-37b" transform="translate(1637.515625 0)"/>
    <use xlink:href="#Inter-Regular-267" transform="translate(1669.265625 0)"/>
    <use xlink:href="#Inter-Regular-3e3" transform="translate(1725.3125 0)"/>
    <use xlink:href="#Inter-Regular-37b" transform="translate(1781.859375 0)"/>
    <use xlink:href="#Inter-Regular-6eb" transform="translate(1814.578125 0)"/>
    <use xlink:href="#Inter-Regular-5e7" transform="translate(1842.703125 0)"/>
    <use xlink:href="#Inter-Regular-6eb" transform="translate(1871.515625 0)"/>
    <use xlink:href="#Inter-Regular-37b" transform="translate(1899.640625 0)"/>
    <use xlink:href="#Inter-Regular-395" transform="translate(1932.359375 0)"/>
    <use xlink:href="#Inter-Regular-307" transform="translate(1991.484375 0)"/>
    <use xlink:href="#Inter-Regular-2b2" transform="translate(2050.5625 0)"/>
    <use xlink:href="#Inter-Regular-307" transform="translate(2074.78125 0)"/>
    <use xlink:href="#Inter-Regular-293" transform="translate(2133.859375 0)"/>
    <use xlink:href="#Inter-Regular-6eb" transform="translate(2195.1875 0)"/>
    <use xlink:href="#Inter-Regular-541" transform="translate(2223.3125 0)"/>
    <use xlink:href="#Inter-Regular-53f" transform="translate(2284.296875 0)"/>
    <use xlink:href="#Inter-Regular-541" transform="translate(2347.390625 0)"/>
    <use xlink:href="#Inter-Regular-547" transform="translate(2408.375 0)"/>
    <use xlink:href="#Inter-Regular-5c1" transform="translate(2470.390625 0)"/>
    <use xlink:href="#Inter-Regular-53f" transform="translate(2516.390625 0)"/>
    <use xlink:href="#Inter-Regular-54a" transform="translate(2579.484375 0)"/>
    <use xlink:href="#Inter-Regular-5c1" transform="translate(2641.5 0)"/>
    <use xlink:href="#Inter-Regular-53f" transform="translate(2687.5 0)"/>
    <use xlink:href="#Inter-Regular-541" transform="translate(2750.59375 0)"/>
    <use xlink:href="#Inter-Regular-6eb" transform="translate(2811.578125 0)"/>
    <use xlink:href="#Inter-Regular-71f" transform="translate(2839.703125 0)"/>
    <use xlink:href="#Inter-Regular-6eb" transform="translate(2935.109375 0)"/>
    <use xlink:href="#Inter-Regular-53f" transform="translate(2963.234375 0)"/>
    <use xlink:href="#Inter-Regular-543" transform="translate(3026.328125 0)"/>
    <use xlink:href="#Inter-Regular-6eb" transform="translate(3088.09375 0)"/>
    <use xlink:href="#Inter-Regular-5e7" transform="translate(3116.21875 0)"/>
    <use xlink:href="#Inter-Regular-6eb" transform="translate(3145.03125 0)"/>
    <use xlink:href="#Inter-Regular-369" transform="translate(3173.15625 0)"/>
    <use xlink:href="#Inter-Regular-37b" transform="translate(3225.9375 0)"/>
    <use xlink:href="#Inter-Regular-318" transform="translate(3257.6875 0)"/>
    <use xlink:href="#Inter-Regular-34d" transform="translate(3317.65625 0)"/>
    <use xlink:href="#Inter-Regular-34d" transform="translate(3378.890625 0)"/>
    <use xlink:href="#Inter-Regular-267" transform="translate(3440.125 0)"/>
    <use xlink:href="#Inter-Regular-256" transform="translate(3498.421875 0)"/>
   </g>
  </g>
  <g id="text_39">
   <!-- A async scheduling + DFlash k=5   ·   B + mixed-prefill guard   ·   C + DFlash k=7 -->
   <g style="fill: #8a8984" transform="translate(30.24 350.321465) scale(0.11 -0.11)">
    <defs>
     <path id="Inter-Regular-3e8" d="M 438 -1266 
C 497 -1294 650 -1331 850 -1331 
C 1344 -1331 1681 -1078 1894 -522 
L 3428 3494 
L 2816 3494 
L 2066 1422 
C 1956 1119 1875 816 1797 525 
C 1716 816 1638 1116 1528 1422 
L 784 3494 
L 169 3494 
L 1503 -19 
L 1403 -309 
C 1231 -809 984 -884 641 -794 
L 581 -778 
L 438 -1266 
z
" transform="scale(0.015625)"/>
     <path id="Inter-Regular-300" d="M 494 0 
L 1056 0 
L 1056 2200 
C 1056 2756 1428 3044 1838 3044 
C 2231 3044 2522 2784 2522 2397 
L 2522 0 
L 3084 0 
L 3084 2281 
C 3084 2722 3372 3044 3844 3044 
C 4219 3044 4547 2844 4547 2341 
L 4547 0 
L 5113 0 
L 5113 2356 
C 5113 3166 4619 3556 4013 3556 
C 3506 3556 3078 3284 2913 2844 
C 2788 3275 2481 3556 2022 3556 
C 1609 3556 1216 3325 1044 2853 
L 1041 3494 
L 494 3494 
L 494 0 
z
" transform="scale(0.015625)"/>
     <path id="Inter-Regular-5b5" d="M 2494 2247 
L 450 2247 
L 450 1728 
L 2494 1728 
L 2494 2247 
z
" transform="scale(0.015625)"/>
    </defs>
    <use xlink:href="#Inter-Regular-2"/>
    <use xlink:href="#Inter-Regular-6eb" transform="translate(69 0)"/>
    <use xlink:href="#Inter-Regular-1fc" transform="translate(97.125 0)"/>
    <use xlink:href="#Inter-Regular-369" transform="translate(153.28125 0)"/>
    <use xlink:href="#Inter-Regular-3e8" transform="translate(206.0625 0)"/>
    <use xlink:href="#Inter-Regular-307" transform="translate(262.265625 0)"/>
    <use xlink:href="#Inter-Regular-24b" transform="translate(321.34375 0)"/>
    <use xlink:href="#Inter-Regular-6eb" transform="translate(378.46875 0)"/>
    <use xlink:href="#Inter-Regular-369" transform="translate(406.59375 0)"/>
    <use xlink:href="#Inter-Regular-24b" transform="translate(459.375 0)"/>
    <use xlink:href="#Inter-Regular-29f" transform="translate(516.5 0)"/>
    <use xlink:href="#Inter-Regular-267" transform="translate(575.625 0)"/>
    <use xlink:href="#Inter-Regular-256" transform="translate(633.921875 0)"/>
    <use xlink:href="#Inter-Regular-395" transform="translate(695.15625 0)"/>
    <use xlink:href="#Inter-Regular-2e2" transform="translate(754.28125 0)"/>
    <use xlink:href="#Inter-Regular-2b2" transform="translate(778.5 0)"/>
    <use xlink:href="#Inter-Regular-307" transform="translate(802.71875 0)"/>
    <use xlink:href="#Inter-Regular-293" transform="translate(861.796875 0)"/>
    <use xlink:href="#Inter-Regular-6eb" transform="translate(923.125 0)"/>
    <use xlink:href="#Inter-Regular-601" transform="translate(951.25 0)"/>
    <use xlink:href="#Inter-Regular-6eb" transform="translate(1017.40625 0)"/>
    <use xlink:href="#Inter-Regular-54" transform="translate(1045.53125 0)"/>
    <use xlink:href="#Inter-Regular-89" transform="translate(1117.703125 0)"/>
    <use xlink:href="#Inter-Regular-2e2" transform="translate(1176.734375 0)"/>
    <use xlink:href="#Inter-Regular-1fc" transform="translate(1200.953125 0)"/>
    <use xlink:href="#Inter-Regular-369" transform="translate(1257.109375 0)"/>
    <use xlink:href="#Inter-Regular-29f" transform="translate(1309.890625 0)"/>
    <use xlink:href="#Inter-Regular-6eb" transform="translate(1369.015625 0)"/>
    <use xlink:href="#Inter-Regular-2d9" transform="translate(1397.140625 0)"/>
    <use xlink:href="#Inter-Regular-5f2" transform="translate(1452.03125 0)"/>
    <use xlink:href="#Inter-Regular-545" transform="translate(1518.1875 0)"/>
    <use xlink:href="#Inter-Regular-6eb" transform="translate(1578.984375 0)"/>
    <use xlink:href="#Inter-Regular-6eb" transform="translate(1607.109375 0)"/>
    <use xlink:href="#Inter-Regular-6eb" transform="translate(1635.234375 0)"/>
    <use xlink:href="#Inter-Regular-5e7" transform="translate(1663.359375 0)"/>
    <use xlink:href="#Inter-Regular-6eb" transform="translate(1692.171875 0)"/>
    <use xlink:href="#Inter-Regular-6eb" transform="translate(1720.296875 0)"/>
    <use xlink:href="#Inter-Regular-6eb" transform="translate(1748.421875 0)"/>
    <use xlink:href="#Inter-Regular-41" transform="translate(1776.546875 0)"/>
    <use xlink:href="#Inter-Regular-6eb" transform="translate(1841.984375 0)"/>
    <use xlink:href="#Inter-Regular-601" transform="translate(1870.109375 0)"/>
    <use xlink:href="#Inter-Regular-6eb" transform="translate(1936.265625 0)"/>
    <use xlink:href="#Inter-Regular-300" transform="translate(1964.390625 0)"/>
    <use xlink:href="#Inter-Regular-2b2" transform="translate(2051.984375 0)"/>
    <use xlink:href="#Inter-Regular-3e3" transform="translate(2076.203125 0)"/>
    <use xlink:href="#Inter-Regular-267" transform="translate(2128.546875 0)"/>
    <use xlink:href="#Inter-Regular-256" transform="translate(2186.84375 0)"/>
    <use xlink:href="#Inter-Regular-5b5" transform="translate(2248.078125 0)"/>
    <use xlink:href="#Inter-Regular-34d" transform="translate(2294.078125 0)"/>
    <use xlink:href="#Inter-Regular-356" transform="translate(2355.3125 0)"/>
    <use xlink:href="#Inter-Regular-267" transform="translate(2391.296875 0)"/>
    <use xlink:href="#Inter-Regular-288" transform="translate(2449.59375 0)"/>
    <use xlink:href="#Inter-Regular-2b2" transform="translate(2486.609375 0)"/>
    <use xlink:href="#Inter-Regular-2e2" transform="translate(2510.828125 0)"/>
    <use xlink:href="#Inter-Regular-2e2" transform="translate(2535.046875 0)"/>
    <use xlink:href="#Inter-Regular-6eb" transform="translate(2559.265625 0)"/>
    <use xlink:href="#Inter-Regular-293" transform="translate(2587.390625 0)"/>
    <use xlink:href="#Inter-Regular-395" transform="translate(2648.71875 0)"/>
    <use xlink:href="#Inter-Regular-1fc" transform="translate(2707.84375 0)"/>
    <use xlink:href="#Inter-Regular-356" transform="translate(2764 0)"/>
    <use xlink:href="#Inter-Regular-256" transform="translate(2799.984375 0)"/>
    <use xlink:href="#Inter-Regular-6eb" transform="translate(2861.21875 0)"/>
    <use xlink:href="#Inter-Regular-6eb" transform="translate(2889.34375 0)"/>
    <use xlink:href="#Inter-Regular-6eb" transform="translate(2917.46875 0)"/>
    <use xlink:href="#Inter-Regular-5e7" transform="translate(2945.59375 0)"/>
    <use xlink:href="#Inter-Regular-6eb" transform="translate(2974.40625 0)"/>
    <use xlink:href="#Inter-Regular-6eb" transform="translate(3002.53125 0)"/>
    <use xlink:href="#Inter-Regular-6eb" transform="translate(3030.65625 0)"/>
    <use xlink:href="#Inter-Regular-49" transform="translate(3058.78125 0)"/>
    <use xlink:href="#Inter-Regular-6eb" transform="translate(3131.828125 0)"/>
    <use xlink:href="#Inter-Regular-601" transform="translate(3159.953125 0)"/>
    <use xlink:href="#Inter-Regular-6eb" transform="translate(3226.109375 0)"/>
    <use xlink:href="#Inter-Regular-54" transform="translate(3254.234375 0)"/>
    <use xlink:href="#Inter-Regular-89" transform="translate(3326.40625 0)"/>
    <use xlink:href="#Inter-Regular-2e2" transform="translate(3385.4375 0)"/>
    <use xlink:href="#Inter-Regular-1fc" transform="translate(3409.65625 0)"/>
    <use xlink:href="#Inter-Regular-369" transform="translate(3465.8125 0)"/>
    <use xlink:href="#Inter-Regular-29f" transform="translate(3518.59375 0)"/>
    <use xlink:href="#Inter-Regular-6eb" transform="translate(3577.71875 0)"/>
    <use xlink:href="#Inter-Regular-2d9" transform="translate(3605.84375 0)"/>
    <use xlink:href="#Inter-Regular-5f2" transform="translate(3660.734375 0)"/>
    <use xlink:href="#Inter-Regular-548" transform="translate(3726.890625 0)"/>
   </g>
  </g>
 </g>
 <defs>
  <clipPath id="p4c68d5a59f">
   <rect x="120.96" y="112.32" width="296.330579" height="187.2"/>
  </clipPath>
  <clipPath id="p344c4ac481">
   <rect x="541.749421" y="112.32" width="296.330579" height="187.2"/>
  </clipPath>
 </defs>
</svg>
